<?xml version="1.0" encoding="UTF-8" standalone="no"?>
<!DOCTYPE svg PUBLIC "-//W3C//DTD SVG 1.1//EN"
 "http://www.w3.org/Graphics/SVG/1.1/DTD/svg11.dtd">
<!-- Generated by graphviz version 3.0.0 (20220226.1711)
 -->
<!-- Title: アーキテクチャ図 Pages: 1 -->
<svg width="446pt" height="299pt"
 viewBox="0.00 0.00 446.00 299.00" xmlns="http://www.w3.org/2000/svg" xmlns:xlink="http://www.w3.org/1999/xlink">
<g id="graph0" class="graph" transform="scale(1 1) rotate(0) translate(4 295)">
<title>アーキテクチャ図</title>
<polygon fill="white" stroke="transparent" points="-4,4 -4,-295 442,-295 442,4 -4,4"/>
<text text-anchor="middle" x="219" y="-7.8" font-family="Times,serif" font-size="14.00">アーキテクチャ図</text>
<g id="clust1" class="cluster">
<title>clusterArchitecture</title>
<polygon fill="lightyellow" stroke="#eedd82" points="8,-31 8,-227 279,-227 279,-31 8,-31"/>
</g>
<!-- com.example.sample.application -->
<g id="node1" class="node">
<title>com.example.sample.application</title>
<polygon fill="#eedd82" stroke="black" points="201,-147 97,-147 97,-143 93,-143 93,-139 97,-139 97,-119 93,-119 93,-115 97,-115 97,-111 201,-111 201,-147"/>
<polyline fill="none" stroke="black" points="97,-143 101,-143 101,-139 97,-139 "/>
<polyline fill="none" stroke="black" points="97,-119 101,-119 101,-115 97,-115 "/>
<text text-anchor="middle" x="149" y="-124" font-family="Times,serif" font-size="20.00">application</text>
</g>
<!-- com.example.sample.domain -->
<g id="node2" class="node">
<title>com.example.sample.domain</title>
<polygon fill="#eedd82" stroke="black" points="187,-75 111,-75 111,-71 107,-71 107,-67 111,-67 111,-47 107,-47 107,-43 111,-43 111,-39 187,-39 187,-75"/>
<polyline fill="none" stroke="black" points="111,-71 115,-71 115,-67 111,-67 "/>
<polyline fill="none" stroke="black" points="111,-47 115,-47 115,-43 111,-43 "/>
<text text-anchor="middle" x="149" y="-52" font-family="Times,serif" font-size="20.00">domain</text>
</g>
<!-- com.example.sample.application&#45;&gt;com.example.sample.domain -->
<g id="edge5" class="edge">
<title>com.example.sample.application&#45;&gt;com.example.sample.domain</title>
<path fill="none" stroke="black" d="M149,-110.83C149,-110.83 149,-85.41 149,-85.41"/>
<polygon fill="black" stroke="black" points="152.5,-85.41 149,-75.41 145.5,-85.41 152.5,-85.41"/>
</g>
<!-- org.springframework -->
<g id="node6" class="node">
<title>org.springframework</title>
<polygon fill="lightgrey" stroke="black" points="438,-75 306,-75 306,-71 302,-71 302,-67 306,-67 306,-47 302,-47 302,-43 306,-43 306,-39 438,-39 438,-75"/>
<polyline fill="none" stroke="black" points="306,-71 310,-71 310,-67 306,-67 "/>
<polyline fill="none" stroke="black" points="306,-47 310,-47 310,-43 306,-43 "/>
<text text-anchor="middle" x="372" y="-53.3" font-family="Times,serif" font-size="14.00">org.springframework</text>
</g>
<!-- com.example.sample.application&#45;&gt;org.springframework -->
<g id="edge11" class="edge">
<title>com.example.sample.application&#45;&gt;org.springframework</title>
<path fill="none" stroke="black" d="M194,-110.99C194,-88.51 194,-53 194,-53 194,-53 295.97,-53 295.97,-53"/>
<polygon fill="black" stroke="black" points="295.97,-56.5 305.97,-53 295.97,-49.5 295.97,-56.5"/>
</g>
<!-- com.example.sample.infrastructure -->
<g id="node3" class="node">
<title>com.example.sample.infrastructure</title>
<polygon fill="#eedd82" stroke="black" points="139.5,-219 16.5,-219 16.5,-215 12.5,-215 12.5,-211 16.5,-211 16.5,-191 12.5,-191 12.5,-187 16.5,-187 16.5,-183 139.5,-183 139.5,-219"/>
<polyline fill="none" stroke="black" points="16.5,-215 20.5,-215 20.5,-211 16.5,-211 "/>
<polyline fill="none" stroke="black" points="16.5,-191 20.5,-191 20.5,-187 16.5,-187 "/>
<text text-anchor="middle" x="78" y="-196" font-family="Times,serif" font-size="20.00">infrastructure</text>
</g>
<!-- com.example.sample.infrastructure&#45;&gt;com.example.sample.application -->
<g id="edge3" class="edge">
<title>com.example.sample.infrastructure&#45;&gt;com.example.sample.application</title>
<path fill="none" stroke="black" d="M111.17,-182.83C111.17,-182.83 111.17,-157.41 111.17,-157.41"/>
<polygon fill="black" stroke="black" points="114.67,-157.41 111.17,-147.41 107.67,-157.41 114.67,-157.41"/>
</g>
<!-- com.example.sample.infrastructure&#45;&gt;com.example.sample.domain -->
<g id="edge1" class="edge">
<title>com.example.sample.infrastructure&#45;&gt;com.example.sample.domain</title>
<path fill="none" stroke="black" d="M43.33,-182.76C43.33,-144.01 43.33,-57 43.33,-57 43.33,-57 100.85,-57 100.85,-57"/>
<polygon fill="black" stroke="black" points="100.85,-60.5 110.85,-57 100.85,-53.5 100.85,-60.5"/>
</g>
<!-- com.example.sample.infrastructure&#45;&gt;org.springframework -->
<g id="edge8" class="edge">
<title>com.example.sample.infrastructure&#45;&gt;org.springframework</title>
<path fill="none" stroke="black" d="M70.17,-182.68C70.17,-151.87 70.17,-93 70.17,-93 70.17,-93 334.5,-93 334.5,-93 334.5,-93 334.5,-85.42 334.5,-85.42"/>
<polygon fill="black" stroke="black" points="338,-85.42 334.5,-75.42 331,-85.42 338,-85.42"/>
</g>
<!-- org.apache -->
<g id="node7" class="node">
<title>org.apache</title>
<polygon fill="lightgrey" stroke="black" points="363,-147 287,-147 287,-143 283,-143 283,-139 287,-139 287,-119 283,-119 283,-115 287,-115 287,-111 363,-111 363,-147"/>
<polyline fill="none" stroke="black" points="287,-143 291,-143 291,-139 287,-139 "/>
<polyline fill="none" stroke="black" points="287,-119 291,-119 291,-115 287,-115 "/>
<text text-anchor="middle" x="325" y="-125.3" font-family="Times,serif" font-size="14.00">org.apache</text>
</g>
<!-- com.example.sample.infrastructure&#45;&gt;org.apache -->
<g id="edge12" class="edge">
<title>com.example.sample.infrastructure&#45;&gt;org.apache</title>
<path fill="none" stroke="black" d="M125.33,-182.58C125.33,-173.72 125.33,-165 125.33,-165 125.33,-165 325,-165 325,-165 325,-165 325,-157.42 325,-157.42"/>
<polygon fill="black" stroke="black" points="328.5,-157.42 325,-147.42 321.5,-157.42 328.5,-157.42"/>
</g>
<!-- com.example.sample.presentation -->
<g id="node4" class="node">
<title>com.example.sample.presentation</title>
<polygon fill="#eedd82" stroke="black" points="270.5,-219 157.5,-219 157.5,-215 153.5,-215 153.5,-211 157.5,-211 157.5,-191 153.5,-191 153.5,-187 157.5,-187 157.5,-183 270.5,-183 270.5,-219"/>
<polyline fill="none" stroke="black" points="157.5,-215 161.5,-215 161.5,-211 157.5,-211 "/>
<polyline fill="none" stroke="black" points="157.5,-191 161.5,-191 161.5,-187 157.5,-187 "/>
<text text-anchor="middle" x="214" y="-196" font-family="Times,serif" font-size="20.00">presentation</text>
</g>
<!-- com.example.sample.presentation&#45;&gt;com.example.sample.application -->
<g id="edge4" class="edge">
<title>com.example.sample.presentation&#45;&gt;com.example.sample.application</title>
<path fill="none" stroke="black" d="M179.25,-182.83C179.25,-182.83 179.25,-157.41 179.25,-157.41"/>
<polygon fill="black" stroke="black" points="182.75,-157.41 179.25,-147.41 175.75,-157.41 182.75,-157.41"/>
</g>
<!-- com.example.sample.presentation&#45;&gt;com.example.sample.domain -->
<g id="edge2" class="edge">
<title>com.example.sample.presentation&#45;&gt;com.example.sample.domain</title>
<path fill="none" stroke="black" d="M218.38,-182.92C218.38,-142.03 218.38,-46 218.38,-46 218.38,-46 197.34,-46 197.34,-46"/>
<polygon fill="black" stroke="black" points="197.34,-42.5 187.34,-46 197.34,-49.5 197.34,-42.5"/>
</g>
<!-- com.example.sample.presentation&#45;&gt;org.springframework -->
<g id="edge10" class="edge">
<title>com.example.sample.presentation&#45;&gt;org.springframework</title>
<path fill="none" stroke="black" d="M235.75,-182.86C235.75,-144.77 235.75,-60 235.75,-60 235.75,-60 295.87,-60 295.87,-60"/>
<polygon fill="black" stroke="black" points="295.87,-63.5 305.87,-60 295.87,-56.5 295.87,-63.5"/>
</g>
<!-- com.example.sample.presentation&#45;&gt;org.apache -->
<g id="edge7" class="edge">
<title>com.example.sample.presentation&#45;&gt;org.apache</title>
<path fill="none" stroke="black" d="M253.12,-182.83C253.12,-161.5 253.12,-129 253.12,-129 253.12,-129 276.96,-129 276.96,-129"/>
<polygon fill="black" stroke="black" points="276.96,-132.5 286.96,-129 276.96,-125.5 276.96,-132.5"/>
</g>
<!-- com.example -->
<g id="node5" class="node">
<title>com.example</title>
<polygon fill="lightgrey" stroke="black" points="366.5,-291 275.5,-291 275.5,-287 271.5,-287 271.5,-283 275.5,-283 275.5,-263 271.5,-263 271.5,-259 275.5,-259 275.5,-255 366.5,-255 366.5,-291"/>
<polyline fill="none" stroke="black" points="275.5,-287 279.5,-287 279.5,-283 275.5,-283 "/>
<polyline fill="none" stroke="black" points="275.5,-263 279.5,-263 279.5,-259 275.5,-259 "/>
<text text-anchor="middle" x="321" y="-269.3" font-family="Times,serif" font-size="14.00">com.example</text>
</g>
<!-- com.example&#45;&gt;com.example.sample.presentation -->
<g id="edge9" class="edge">
<title>com.example&#45;&gt;com.example.sample.presentation</title>
<path fill="none" stroke="black" d="M279.33,-254.83C279.33,-233.5 279.33,-201 279.33,-201 279.33,-201 278.45,-201 278.45,-201"/>
<polygon fill="black" stroke="black" points="280.52,-197.5 270.52,-201 280.52,-204.5 280.52,-197.5"/>
</g>
<!-- com.example&#45;&gt;org.springframework -->
<g id="edge6" class="edge">
<title>com.example&#45;&gt;org.springframework</title>
<path fill="none" stroke="black" d="M283.17,-254.72C283.17,-204.3 283.17,-67 283.17,-67 283.17,-67 295.58,-67 295.58,-67"/>
<polygon fill="black" stroke="black" points="295.58,-70.5 305.58,-67 295.58,-63.5 295.58,-70.5"/>
</g>
</g>
</svg>
