<?xml version="1.0" encoding="UTF-8" standalone="no"?>
<!DOCTYPE svg PUBLIC "-//W3C//DTD SVG 1.1//EN"
 "http://www.w3.org/Graphics/SVG/1.1/DTD/svg11.dtd">
<!-- Generated by graphviz version 3.0.0 (20220226.1711)
 -->
<!-- Title: 区分図 Pages: 1 -->
<svg width="952pt" height="930pt"
 viewBox="0.00 0.00 952.00 930.00" xmlns="http://www.w3.org/2000/svg" xmlns:xlink="http://www.w3.org/1999/xlink">
<g id="graph0" class="graph" transform="scale(1 1) rotate(0) translate(4 903)">
<title>区分図</title>
<polygon fill="white" stroke="transparent" points="-4,27 -4,-903 948,-903 948,27 -4,27"/>
<text text-anchor="middle" x="472" y="15.2" font-family="Times,serif" font-size="14.00">区分図</text>
<g id="clust1" class="cluster">
<title>cluster_com.example.sample.domain.model.item</title>
<polygon fill="none" stroke="lightgray" points="640.24,-608.14 640.24,-899.14 944.24,-899.14 944.24,-608.14 640.24,-608.14"/>
<text text-anchor="middle" x="792.24" y="-883.94" font-family="Times,serif" font-size="14.00">item</text>
</g>
<g id="clust2" class="cluster">
<title>cluster_com.example.sample.domain.model.character</title>
<polygon fill="none" stroke="lightgray" points="96.24,-95.64 96.24,-545.64 604.24,-545.64 604.24,-95.64 96.24,-95.64"/>
<text text-anchor="middle" x="350.24" y="-530.44" font-family="Times,serif" font-size="14.00">character</text>
</g>
<g id="clust3" class="cluster">
<title>cluster_com.example.sample.domain.model.character.enemy</title>
<polygon fill="none" stroke="lightgray" points="392.48,-391.78 392.48,-514.78 584.48,-514.78 584.48,-391.78 392.48,-391.78"/>
<text text-anchor="middle" x="488.48" y="-499.58" font-family="Times,serif" font-size="14.00">enemy</text>
</g>
<g id="clust4" class="cluster">
<title>cluster_com.example.sample.domain.model.character.npc</title>
<polygon fill="none" stroke="lightgray" points="392.48,-103.78 392.48,-352.78 596.48,-352.78 596.48,-103.78 392.48,-103.78"/>
<text text-anchor="middle" x="494.48" y="-337.58" font-family="Times,serif" font-size="14.00">npc</text>
</g>
<g id="clust5" class="cluster">
<title>cluster_com.example.sample.domain.model.character.player</title>
<polygon fill="none" stroke="lightgray" points="104.48,-151.78 104.48,-400.78 352.48,-400.78 352.48,-151.78 104.48,-151.78"/>
<text text-anchor="middle" x="228.48" y="-385.58" font-family="Times,serif" font-size="14.00">player</text>
</g>
<g id="clust6" class="cluster">
<title>cluster_com.example.sample.domain.model.interactive</title>
<polygon fill="none" stroke="lightgray" points="-0.26,-672.14 -0.26,-795.14 192.74,-795.14 192.74,-672.14 -0.26,-672.14"/>
<text text-anchor="middle" x="96.24" y="-779.94" font-family="Times,serif" font-size="14.00">interactive</text>
</g>
<g id="clust7" class="cluster">
<title>cluster_com.example.sample.domain.model.gamemode</title>
<polygon fill="none" stroke="lightgray" points="671.74,-255.64 671.74,-441.64 842.74,-441.64 842.74,-255.64 671.74,-255.64"/>
<text text-anchor="middle" x="757.24" y="-426.44" font-family="Times,serif" font-size="14.00">gamemode</text>
</g>
<g id="clust8" class="cluster">
<title>cluster_com.example.sample.domain.model.battle</title>
<polygon fill="none" stroke="lightgray" points="255.74,-608.14 255.74,-845.14 588.74,-845.14 588.74,-608.14 255.74,-608.14"/>
<text text-anchor="middle" x="422.24" y="-829.94" font-family="Times,serif" font-size="14.00">battle</text>
</g>
<g id="clust9" class="cluster">
<title>cluster_com.example.sample.domain.model.battle.technique</title>
<polygon fill="none" stroke="lightgray" points="263.48,-615.78 263.48,-813.78 580.48,-813.78 580.48,-615.78 263.48,-615.78"/>
<text text-anchor="middle" x="421.98" y="-798.58" font-family="Times,serif" font-size="14.00">technique</text>
</g>
<g id="clust10" class="cluster">
<title>cluster_com.example.sample.domain.model.battle.technique.magic</title>
<polygon fill="none" stroke="lightgray" points="271.71,-638.42 271.71,-782.42 407.71,-782.42 407.71,-638.42 271.71,-638.42"/>
<text text-anchor="middle" x="339.71" y="-767.22" font-family="Times,serif" font-size="14.00">magic</text>
</g>
<g id="clust11" class="cluster">
<title>cluster_com.example.sample.domain.model.battle.technique.physics</title>
<polygon fill="none" stroke="lightgray" points="436.71,-623.92 436.71,-746.92 572.71,-746.92 572.71,-623.92 436.71,-623.92"/>
<text text-anchor="middle" x="504.71" y="-731.72" font-family="Times,serif" font-size="14.00">physics</text>
</g>
<g id="clust12" class="cluster">
<title>cluster_com.example.sample.domain.model.worldmap</title>
<polygon fill="none" stroke="lightgray" points="672.24,-0.14 672.24,-207.14 886.24,-207.14 886.24,-0.14 672.24,-0.14"/>
<text text-anchor="middle" x="779.24" y="-191.94" font-family="Times,serif" font-size="14.00">worldmap</text>
</g>
<!-- com.example.sample.domain.model.item.ItemType -->
<g id="node1" class="node">
<title>com.example.sample.domain.model.item.ItemType</title>
<polygon fill="lemonchiffon" stroke="black" points="800.48,-867.78 648.48,-867.78 648.48,-615.78 800.48,-615.78 800.48,-867.78"/>
<text text-anchor="start" x="675.48" y="-850.58" font-family="Times,serif" font-size="14.00">アイテムの種類</text>
<text text-anchor="start" x="697.48" y="-835.58" font-family="Times,serif" font-size="14.00">ItemType</text>
<polygon fill="none" stroke="black" points="656.48,-808.78 656.48,-829.78 792.48,-829.78 792.48,-808.78 656.48,-808.78"/>
<text text-anchor="start" x="710.48" y="-815.58" font-family="Times,serif" font-size="14.00">KEY</text>
<polygon fill="none" stroke="black" points="656.48,-787.78 656.48,-808.78 792.48,-808.78 792.48,-787.78 656.48,-787.78"/>
<text text-anchor="start" x="694.98" y="-794.58" font-family="Times,serif" font-size="14.00">WEAPON</text>
<polygon fill="none" stroke="black" points="656.48,-766.78 656.48,-787.78 792.48,-787.78 792.48,-766.78 656.48,-766.78"/>
<text text-anchor="start" x="659.48" y="-773.58" font-family="Times,serif" font-size="14.00">MAGICAL_WEAPON</text>
<polygon fill="none" stroke="black" points="656.48,-745.78 656.48,-766.78 792.48,-766.78 792.48,-745.78 656.48,-745.78"/>
<text text-anchor="start" x="676.48" y="-752.58" font-family="Times,serif" font-size="14.00">BODY_ARMOR</text>
<polygon fill="none" stroke="black" points="656.48,-724.78 656.48,-745.78 792.48,-745.78 792.48,-724.78 656.48,-724.78"/>
<text text-anchor="start" x="682.48" y="-731.58" font-family="Times,serif" font-size="14.00">POTION_RED</text>
<polygon fill="none" stroke="black" points="656.48,-703.78 656.48,-724.78 792.48,-724.78 792.48,-703.78 656.48,-703.78"/>
<text text-anchor="start" x="678.48" y="-710.58" font-family="Times,serif" font-size="14.00">POTION_BLUE</text>
<polygon fill="none" stroke="black" points="656.48,-682.78 656.48,-703.78 792.48,-703.78 792.48,-682.78 656.48,-682.78"/>
<text text-anchor="start" x="666.98" y="-689.58" font-family="Times,serif" font-size="14.00">SHIELD_NORMAL</text>
<polygon fill="none" stroke="black" points="656.48,-661.78 656.48,-682.78 792.48,-682.78 792.48,-661.78 656.48,-661.78"/>
<text text-anchor="start" x="678.98" y="-668.58" font-family="Times,serif" font-size="14.00">SHIELD_BLUE</text>
<polygon fill="none" stroke="black" points="656.48,-640.78 656.48,-661.78 792.48,-661.78 792.48,-640.78 656.48,-640.78"/>
<text text-anchor="start" x="666.98" y="-647.58" font-family="Times,serif" font-size="14.00">CRYSTAL_BLANK</text>
<polygon fill="none" stroke="black" points="656.48,-619.78 656.48,-640.78 792.48,-640.78 792.48,-619.78 656.48,-619.78"/>
<text text-anchor="start" x="672.98" y="-626.58" font-family="Times,serif" font-size="14.00">CRYSTAL_FULL</text>
</g>
<!-- com.example.sample.domain.model.item.EquipmentType -->
<g id="node2" class="node">
<title>com.example.sample.domain.model.item.EquipmentType</title>
<polygon fill="lemonchiffon" stroke="black" points="936.48,-739.28 828.48,-739.28 828.48,-634.28 936.48,-634.28 936.48,-739.28"/>
<text text-anchor="start" x="846.48" y="-721.58" font-family="Times,serif" font-size="14.00">装備の種類</text>
<text text-anchor="start" x="838.48" y="-706.58" font-family="Times,serif" font-size="14.00">EquipmentType</text>
<polygon fill="none" stroke="black" points="836.48,-679.78 836.48,-700.78 928.48,-700.78 928.48,-679.78 836.48,-679.78"/>
<text text-anchor="start" x="856.98" y="-686.58" font-family="Times,serif" font-size="14.00">ARMOR</text>
<polygon fill="none" stroke="black" points="836.48,-658.78 836.48,-679.78 928.48,-679.78 928.48,-658.78 836.48,-658.78"/>
<text text-anchor="start" x="866.48" y="-665.58" font-family="Times,serif" font-size="14.00">ARM</text>
<polygon fill="none" stroke="black" points="836.48,-637.78 836.48,-658.78 928.48,-658.78 928.48,-637.78 836.48,-637.78"/>
<text text-anchor="start" x="852.98" y="-644.58" font-family="Times,serif" font-size="14.00">WEAPON</text>
</g>
<!-- com.example.sample.domain.model.character.enemy.EnemyAnimationType -->
<g id="node3" class="node">
<title>com.example.sample.domain.model.character.enemy.EnemyAnimationType</title>
<polygon fill="lemonchiffon" stroke="black" points="576.71,-483.42 400.71,-483.42 400.71,-399.42 576.71,-399.42 576.71,-483.42"/>
<text text-anchor="start" x="410.71" y="-466.22" font-family="Times,serif" font-size="14.00">敵のアニメーション種類</text>
<text text-anchor="start" x="425.71" y="-451.22" font-family="Times,serif" font-size="14.00">EnemyAnimationType</text>
<polygon fill="none" stroke="black" points="408.71,-424.42 408.71,-445.42 568.71,-445.42 568.71,-424.42 408.71,-424.42"/>
<text text-anchor="start" x="425.71" y="-431.22" font-family="Times,serif" font-size="14.00">SLIME_DOWN_ONE</text>
<polygon fill="none" stroke="black" points="408.71,-403.42 408.71,-424.42 568.71,-424.42 568.71,-403.42 408.71,-403.42"/>
<text text-anchor="start" x="423.71" y="-410.22" font-family="Times,serif" font-size="14.00">SLIME_DOWN_TWO</text>
</g>
<!-- com.example.sample.domain.model.character.npc.NpcAnimationType -->
<g id="node4" class="node">
<title>com.example.sample.domain.model.character.npc.NpcAnimationType</title>
<polygon fill="lemonchiffon" stroke="black" points="588.71,-321.42 400.71,-321.42 400.71,-111.42 588.71,-111.42 588.71,-321.42"/>
<text text-anchor="start" x="410.71" y="-304.22" font-family="Times,serif" font-size="14.00">NPCのアニメーション種類</text>
<text text-anchor="start" x="440.21" y="-289.22" font-family="Times,serif" font-size="14.00">NpcAnimationType</text>
<polygon fill="none" stroke="black" points="408.71,-262.42 408.71,-283.42 580.71,-283.42 580.71,-262.42 408.71,-262.42"/>
<text text-anchor="start" x="431.71" y="-269.22" font-family="Times,serif" font-size="14.00">OLD_MAN_UP_ONE</text>
<polygon fill="none" stroke="black" points="408.71,-241.42 408.71,-262.42 580.71,-262.42 580.71,-241.42 408.71,-241.42"/>
<text text-anchor="start" x="429.71" y="-248.22" font-family="Times,serif" font-size="14.00">OLD_MAN_UP_TWO</text>
<polygon fill="none" stroke="black" points="408.71,-220.42 408.71,-241.42 580.71,-241.42 580.71,-220.42 408.71,-220.42"/>
<text text-anchor="start" x="419.21" y="-227.22" font-family="Times,serif" font-size="14.00">OLD_MAN_DOWN_ONE</text>
<polygon fill="none" stroke="black" points="408.71,-199.42 408.71,-220.42 580.71,-220.42 580.71,-199.42 408.71,-199.42"/>
<text text-anchor="start" x="417.21" y="-206.22" font-family="Times,serif" font-size="14.00">OLD_MAN_DOWN_TWO</text>
<polygon fill="none" stroke="black" points="408.71,-178.42 408.71,-199.42 580.71,-199.42 580.71,-178.42 408.71,-178.42"/>
<text text-anchor="start" x="424.21" y="-185.22" font-family="Times,serif" font-size="14.00">OLD_MAN_LEFT_ONE</text>
<polygon fill="none" stroke="black" points="408.71,-157.42 408.71,-178.42 580.71,-178.42 580.71,-157.42 408.71,-157.42"/>
<text text-anchor="start" x="422.21" y="-164.22" font-family="Times,serif" font-size="14.00">OLD_MAN_LEFT_TWO</text>
<polygon fill="none" stroke="black" points="408.71,-136.42 408.71,-157.42 580.71,-157.42 580.71,-136.42 408.71,-136.42"/>
<text text-anchor="start" x="419.71" y="-143.22" font-family="Times,serif" font-size="14.00">OLD_MAN_RIGHT_ONE</text>
<polygon fill="none" stroke="black" points="408.71,-115.42 408.71,-136.42 580.71,-136.42 580.71,-115.42 408.71,-115.42"/>
<text text-anchor="start" x="417.71" y="-122.22" font-family="Times,serif" font-size="14.00">OLD_MAN_RIGHT_TWO</text>
</g>
<!-- com.example.sample.domain.model.character.player.PlayerAnimationType -->
<g id="node5" class="node">
<title>com.example.sample.domain.model.character.player.PlayerAnimationType</title>
<polygon fill="lemonchiffon" stroke="black" points="344.71,-369.42 112.71,-369.42 112.71,-159.42 344.71,-159.42 344.71,-369.42"/>
<text text-anchor="start" x="122.71" y="-352.22" font-family="Times,serif" font-size="14.00">プレイヤーのアニメーション種類</text>
<text text-anchor="start" x="168.21" y="-337.22" font-family="Times,serif" font-size="14.00">PlayerAnimationType</text>
<polygon fill="none" stroke="black" points="120.71,-310.42 120.71,-331.42 336.71,-331.42 336.71,-310.42 120.71,-310.42"/>
<text text-anchor="start" x="202.71" y="-317.22" font-family="Times,serif" font-size="14.00">UP_ONE</text>
<polygon fill="none" stroke="black" points="120.71,-289.42 120.71,-310.42 336.71,-310.42 336.71,-289.42 120.71,-289.42"/>
<text text-anchor="start" x="200.71" y="-296.22" font-family="Times,serif" font-size="14.00">UP_TWO</text>
<polygon fill="none" stroke="black" points="120.71,-268.42 120.71,-289.42 336.71,-289.42 336.71,-268.42 120.71,-268.42"/>
<text text-anchor="start" x="189.71" y="-275.22" font-family="Times,serif" font-size="14.00">DOWN_ONE</text>
<polygon fill="none" stroke="black" points="120.71,-247.42 120.71,-268.42 336.71,-268.42 336.71,-247.42 120.71,-247.42"/>
<text text-anchor="start" x="187.71" y="-254.22" font-family="Times,serif" font-size="14.00">DOWN_TWO</text>
<polygon fill="none" stroke="black" points="120.71,-226.42 120.71,-247.42 336.71,-247.42 336.71,-226.42 120.71,-226.42"/>
<text text-anchor="start" x="195.21" y="-233.22" font-family="Times,serif" font-size="14.00">LEFT_ONE</text>
<polygon fill="none" stroke="black" points="120.71,-205.42 120.71,-226.42 336.71,-226.42 336.71,-205.42 120.71,-205.42"/>
<text text-anchor="start" x="193.21" y="-212.22" font-family="Times,serif" font-size="14.00">LEFT_TWO</text>
<polygon fill="none" stroke="black" points="120.71,-184.42 120.71,-205.42 336.71,-205.42 336.71,-184.42 120.71,-184.42"/>
<text text-anchor="start" x="190.71" y="-191.22" font-family="Times,serif" font-size="14.00">RIGHT_ONE</text>
<polygon fill="none" stroke="black" points="120.71,-163.42 120.71,-184.42 336.71,-184.42 336.71,-163.42 120.71,-163.42"/>
<text text-anchor="start" x="188.71" y="-170.22" font-family="Times,serif" font-size="14.00">RIGHT_TWO</text>
</g>
<!-- com.example.sample.domain.model.interactive.InteractiveType -->
<g id="node6" class="node">
<title>com.example.sample.domain.model.interactive.InteractiveType</title>
<polygon fill="lemonchiffon" stroke="black" points="184.48,-763.78 7.48,-763.78 7.48,-679.78 184.48,-679.78 184.48,-763.78"/>
<text text-anchor="start" x="17.98" y="-746.58" font-family="Times,serif" font-size="14.00">相互作用トリガーの種類</text>
<text text-anchor="start" x="53.48" y="-731.58" font-family="Times,serif" font-size="14.00">InteractiveType</text>
<polygon fill="none" stroke="black" points="15.98,-704.78 15.98,-725.78 176.98,-725.78 176.98,-704.78 15.98,-704.78"/>
<text text-anchor="start" x="74.98" y="-711.58" font-family="Times,serif" font-size="14.00">CHEST</text>
<polygon fill="none" stroke="black" points="15.98,-683.78 15.98,-704.78 176.98,-704.78 176.98,-683.78 15.98,-683.78"/>
<text text-anchor="start" x="76.98" y="-690.58" font-family="Times,serif" font-size="14.00">DOOR</text>
</g>
<!-- com.example.sample.domain.model.gamemode.GameModeType -->
<g id="node7" class="node">
<title>com.example.sample.domain.model.gamemode.GameModeType</title>
<polygon fill="lemonchiffon" stroke="black" points="834.48,-410.78 679.48,-410.78 679.48,-263.78 834.48,-263.78 834.48,-410.78"/>
<text text-anchor="start" x="693.98" y="-393.08" font-family="Times,serif" font-size="14.00">ゲームモードの種類</text>
<text text-anchor="start" x="710.48" y="-378.08" font-family="Times,serif" font-size="14.00">GameModeType</text>
<polygon fill="none" stroke="black" points="687.98,-351.28 687.98,-372.28 826.98,-372.28 826.98,-351.28 687.98,-351.28"/>
<text text-anchor="start" x="706.48" y="-358.08" font-family="Times,serif" font-size="14.00">DISPLAY_TITLE</text>
<polygon fill="none" stroke="black" points="687.98,-330.28 687.98,-351.28 826.98,-351.28 826.98,-330.28 687.98,-330.28"/>
<text text-anchor="start" x="713.48" y="-337.08" font-family="Times,serif" font-size="14.00">WORLD_MAP</text>
<polygon fill="none" stroke="black" points="687.98,-309.28 687.98,-330.28 826.98,-330.28 826.98,-309.28 687.98,-309.28"/>
<text text-anchor="start" x="731.98" y="-316.08" font-family="Times,serif" font-size="14.00">BATTLE</text>
<polygon fill="none" stroke="black" points="687.98,-288.28 687.98,-309.28 826.98,-309.28 826.98,-288.28 687.98,-288.28"/>
<text text-anchor="start" x="690.98" y="-295.08" font-family="Times,serif" font-size="14.00">DISPLAY_ITEM_LIST</text>
<polygon fill="none" stroke="black" points="687.98,-267.28 687.98,-288.28 826.98,-288.28 826.98,-267.28 687.98,-267.28"/>
<text text-anchor="start" x="711.48" y="-274.08" font-family="Times,serif" font-size="14.00">GAME_CLEAR</text>
</g>
<!-- com.example.sample.domain.model.battle.technique.magic.MagicType -->
<g id="node8" class="node">
<title>com.example.sample.domain.model.battle.technique.magic.MagicType</title>
<polygon fill="#eedd82" stroke="black" points="399.95,-751.56 279.95,-751.56 279.95,-646.56 399.95,-646.56 399.95,-751.56"/>
<text text-anchor="start" x="289.95" y="-733.86" font-family="Times,serif" font-size="14.00">魔法攻撃の種類</text>
<text text-anchor="start" x="307.95" y="-718.86" font-family="Times,serif" font-size="14.00">MagicType</text>
<polygon fill="none" stroke="black" points="287.95,-692.06 287.95,-713.06 391.95,-713.06 391.95,-692.06 287.95,-692.06"/>
<text text-anchor="start" x="324.95" y="-698.86" font-family="Times,serif" font-size="14.00">FIRE</text>
<polygon fill="none" stroke="black" points="287.95,-671.06 287.95,-692.06 391.95,-692.06 391.95,-671.06 287.95,-671.06"/>
<text text-anchor="start" x="314.95" y="-677.86" font-family="Times,serif" font-size="14.00">SHIDEN</text>
<polygon fill="none" stroke="black" points="287.95,-650.06 287.95,-671.06 391.95,-671.06 391.95,-650.06 287.95,-650.06"/>
<text text-anchor="start" x="304.45" y="-656.86" font-family="Times,serif" font-size="14.00">HELL_FIRE</text>
</g>
<!-- com.example.sample.domain.model.battle.technique.physics.PhysicsType -->
<g id="node9" class="node">
<title>com.example.sample.domain.model.battle.technique.physics.PhysicsType</title>
<polygon fill="#eedd82" stroke="black" points="564.95,-715.56 444.95,-715.56 444.95,-631.56 564.95,-631.56 564.95,-715.56"/>
<text text-anchor="start" x="454.95" y="-698.36" font-family="Times,serif" font-size="14.00">物理攻撃の種類</text>
<text text-anchor="start" x="469.95" y="-683.36" font-family="Times,serif" font-size="14.00">PhysicsType</text>
<polygon fill="none" stroke="black" points="452.95,-656.56 452.95,-677.56 556.95,-677.56 556.95,-656.56 452.95,-656.56"/>
<text text-anchor="start" x="481.95" y="-663.36" font-family="Times,serif" font-size="14.00">PUNCH</text>
<polygon fill="none" stroke="black" points="452.95,-635.56 452.95,-656.56 556.95,-656.56 556.95,-635.56 452.95,-635.56"/>
<text text-anchor="start" x="487.95" y="-642.36" font-family="Times,serif" font-size="14.00">KICK</text>
</g>
<!-- com.example.sample.domain.model.worldmap.Direction -->
<g id="node10" class="node">
<title>com.example.sample.domain.model.worldmap.Direction</title>
<polygon fill="lemonchiffon" stroke="black" points="878.48,-169.28 806.48,-169.28 806.48,-22.28 878.48,-22.28 878.48,-169.28"/>
<text text-anchor="start" x="827.98" y="-151.58" font-family="Times,serif" font-size="14.00">方向</text>
<text text-anchor="start" x="816.48" y="-136.58" font-family="Times,serif" font-size="14.00">Direction</text>
<polygon fill="none" stroke="black" points="814.48,-109.78 814.48,-130.78 870.48,-130.78 870.48,-109.78 814.48,-109.78"/>
<text text-anchor="start" x="833.48" y="-116.58" font-family="Times,serif" font-size="14.00">UP</text>
<polygon fill="none" stroke="black" points="814.48,-88.78 814.48,-109.78 870.48,-109.78 870.48,-88.78 814.48,-88.78"/>
<text text-anchor="start" x="820.98" y="-95.58" font-family="Times,serif" font-size="14.00">DOWN</text>
<polygon fill="none" stroke="black" points="814.48,-67.78 814.48,-88.78 870.48,-88.78 870.48,-67.78 814.48,-67.78"/>
<text text-anchor="start" x="825.98" y="-74.58" font-family="Times,serif" font-size="14.00">LEFT</text>
<polygon fill="none" stroke="black" points="814.48,-46.78 814.48,-67.78 870.48,-67.78 870.48,-46.78 814.48,-46.78"/>
<text text-anchor="start" x="821.48" y="-53.58" font-family="Times,serif" font-size="14.00">RIGHT</text>
<polygon fill="none" stroke="black" points="814.48,-25.78 814.48,-46.78 870.48,-46.78 870.48,-25.78 814.48,-25.78"/>
<text text-anchor="start" x="823.48" y="-32.58" font-family="Times,serif" font-size="14.00">NONE</text>
</g>
<!-- com.example.sample.domain.model.worldmap.TileType -->
<g id="node11" class="node">
<title>com.example.sample.domain.model.worldmap.TileType</title>
<polygon fill="#eedd82" stroke="black" points="784.48,-175.78 680.48,-175.78 680.48,-7.78 784.48,-7.78 784.48,-175.78"/>
<text text-anchor="start" x="690.48" y="-158.58" font-family="Times,serif" font-size="14.00">タイルの種類</text>
<text text-anchor="start" x="707.48" y="-143.58" font-family="Times,serif" font-size="14.00">TileType</text>
<polygon fill="none" stroke="black" points="688.48,-116.78 688.48,-137.78 776.48,-137.78 776.48,-116.78 688.48,-116.78"/>
<text text-anchor="start" x="710.48" y="-123.58" font-family="Times,serif" font-size="14.00">GRASS</text>
<polygon fill="none" stroke="black" points="688.48,-95.78 688.48,-116.78 776.48,-116.78 776.48,-95.78 688.48,-95.78"/>
<text text-anchor="start" x="712.98" y="-102.58" font-family="Times,serif" font-size="14.00">WALL</text>
<polygon fill="none" stroke="black" points="688.48,-74.78 688.48,-95.78 776.48,-95.78 776.48,-74.78 688.48,-74.78"/>
<text text-anchor="start" x="709.48" y="-81.58" font-family="Times,serif" font-size="14.00">WATER</text>
<polygon fill="none" stroke="black" points="688.48,-53.78 688.48,-74.78 776.48,-74.78 776.48,-53.78 688.48,-53.78"/>
<text text-anchor="start" x="709.98" y="-60.58" font-family="Times,serif" font-size="14.00">FLOOR</text>
<polygon fill="none" stroke="black" points="688.48,-32.78 688.48,-53.78 776.48,-53.78 776.48,-32.78 688.48,-32.78"/>
<text text-anchor="start" x="715.48" y="-39.58" font-family="Times,serif" font-size="14.00">TREE</text>
<polygon fill="none" stroke="black" points="688.48,-11.78 688.48,-32.78 776.48,-32.78 776.48,-11.78 688.48,-11.78"/>
<text text-anchor="start" x="713.98" y="-18.58" font-family="Times,serif" font-size="14.00">SAND</text>
</g>
</g>
</svg>
