<?xml version="1.0" encoding="UTF-8" standalone="no"?>
<!DOCTYPE svg PUBLIC "-//W3C//DTD SVG 1.1//EN"
 "http://www.w3.org/Graphics/SVG/1.1/DTD/svg11.dtd">
<!-- Generated by graphviz version 3.0.0 (20220226.1711)
 -->
<!-- Title: コンポーネント関連図 Pages: 1 -->
<svg width="876pt" height="368pt"
 viewBox="0.00 0.00 876.00 368.00" xmlns="http://www.w3.org/2000/svg" xmlns:xlink="http://www.w3.org/1999/xlink">
<g id="graph0" class="graph" transform="scale(1 1) rotate(0) translate(4 341)">
<title>コンポーネント関連図</title>
<polygon fill="white" stroke="transparent" points="-4,27 -4,-341 872,-341 872,27 -4,27"/>
<text text-anchor="middle" x="434" y="15.2" font-family="Times,serif" font-size="14.00">コンポーネント関連図</text>
<!-- SPRING_REPOSITORY -->
<g id="node1" class="node">
<title>SPRING_REPOSITORY</title>
<polygon fill="#eedd82" stroke="black" points="197.16,-188.53 121.16,-188.53 121.16,-184.53 117.16,-184.53 117.16,-180.53 121.16,-180.53 121.16,-160.53 117.16,-160.53 117.16,-156.53 121.16,-156.53 121.16,-152.53 197.16,-152.53 197.16,-188.53"/>
<polyline fill="none" stroke="black" points="121.16,-184.53 125.16,-184.53 125.16,-180.53 121.16,-180.53 "/>
<polyline fill="none" stroke="black" points="121.16,-160.53 125.16,-160.53 125.16,-156.53 121.16,-156.53 "/>
<text text-anchor="middle" x="159.16" y="-166.83" font-family="Times,serif" font-size="14.00">Repository</text>
</g>
<!-- com.example.sample.application.repository.enemy.EnemyRepository -->
<g id="node2" class="node">
<title>com.example.sample.application.repository.enemy.EnemyRepository</title>
<ellipse fill="lightgrey" stroke="black" cx="255.93" cy="-17.52" rx="46.38" ry="18"/>
<text text-anchor="middle" x="255.93" y="-15.32" font-family="Times,serif" font-size="9.00">EnemyRepository</text>
</g>
<!-- SPRING_REPOSITORY&#45;&gt;com.example.sample.application.repository.enemy.EnemyRepository -->
<g id="edge19" class="edge">
<title>SPRING_REPOSITORY&#45;&gt;com.example.sample.application.repository.enemy.EnemyRepository</title>
<path fill="none" stroke="black" d="M170.64,-152.37C187.69,-125.43 219.77,-74.7 239.36,-43.73"/>
<polygon fill="black" stroke="black" points="242.38,-45.5 244.77,-35.18 236.46,-41.76 242.38,-45.5"/>
</g>
<!-- com.example.sample.application.repository.item.ItemRepository -->
<g id="node3" class="node">
<title>com.example.sample.application.repository.item.ItemRepository</title>
<ellipse fill="lightgrey" stroke="black" cx="152.35" cy="-33.73" rx="40.98" ry="18"/>
<text text-anchor="middle" x="152.35" y="-31.53" font-family="Times,serif" font-size="9.00">ItemRepository</text>
</g>
<!-- SPRING_REPOSITORY&#45;&gt;com.example.sample.application.repository.item.ItemRepository -->
<g id="edge25" class="edge">
<title>SPRING_REPOSITORY&#45;&gt;com.example.sample.application.repository.item.ItemRepository</title>
<path fill="none" stroke="black" d="M158.26,-152.36C157.11,-129.26 155.11,-89.13 153.76,-62.01"/>
<polygon fill="black" stroke="black" points="157.25,-61.78 153.26,-51.97 150.26,-62.13 157.25,-61.78"/>
</g>
<!-- com.example.sample.application.repository.interactive.InteractiveRepository -->
<g id="node4" class="node">
<title>com.example.sample.application.repository.interactive.InteractiveRepository</title>
<ellipse fill="lightgrey" stroke="black" cx="117.05" cy="-306.41" rx="53.23" ry="18"/>
<text text-anchor="middle" x="117.05" y="-304.21" font-family="Times,serif" font-size="9.00">InteractiveRepository</text>
</g>
<!-- SPRING_REPOSITORY&#45;&gt;com.example.sample.application.repository.interactive.InteractiveRepository -->
<g id="edge20" class="edge">
<title>SPRING_REPOSITORY&#45;&gt;com.example.sample.application.repository.interactive.InteractiveRepository</title>
<path fill="none" stroke="black" d="M153.57,-188.57C146.43,-211.61 133.99,-251.73 125.64,-278.67"/>
<polygon fill="black" stroke="black" points="122.28,-277.7 122.66,-288.29 128.97,-279.77 122.28,-277.7"/>
</g>
<!-- com.example.sample.application.repository.npc.NpcRepository -->
<g id="node5" class="node">
<title>com.example.sample.application.repository.npc.NpcRepository</title>
<ellipse fill="lightgrey" stroke="black" cx="219.82" cy="-319.3" rx="40.98" ry="18"/>
<text text-anchor="middle" x="219.82" y="-317.1" font-family="Times,serif" font-size="9.00">NpcRepository</text>
</g>
<!-- SPRING_REPOSITORY&#45;&gt;com.example.sample.application.repository.npc.NpcRepository -->
<g id="edge22" class="edge">
<title>SPRING_REPOSITORY&#45;&gt;com.example.sample.application.repository.npc.NpcRepository</title>
<path fill="none" stroke="black" d="M166.6,-188.77C177.12,-214.56 196.41,-261.89 208.65,-291.91"/>
<polygon fill="black" stroke="black" points="205.49,-293.43 212.51,-301.37 211.97,-290.79 205.49,-293.43"/>
</g>
<!-- com.example.sample.application.repository.worldmap.WorldMapRepository -->
<g id="node6" class="node">
<title>com.example.sample.application.repository.worldmap.WorldMapRepository</title>
<ellipse fill="lightgrey" stroke="black" cx="54.48" cy="-220.75" rx="54.7" ry="18"/>
<text text-anchor="middle" x="54.48" y="-218.55" font-family="Times,serif" font-size="9.00">WorldMapRepository</text>
</g>
<!-- SPRING_REPOSITORY&#45;&gt;com.example.sample.application.repository.worldmap.WorldMapRepository -->
<g id="edge11" class="edge">
<title>SPRING_REPOSITORY&#45;&gt;com.example.sample.application.repository.worldmap.WorldMapRepository</title>
<path fill="none" stroke="black" d="M121.37,-188.66C112.77,-192.78 103.6,-197.18 94.89,-201.36"/>
<polygon fill="black" stroke="black" points="93.18,-198.3 85.67,-205.78 96.2,-204.61 93.18,-198.3"/>
</g>
<!-- com.example.sample.application.repository.player.PlayerRepository -->
<g id="node7" class="node">
<title>com.example.sample.application.repository.player.PlayerRepository</title>
<ellipse fill="lightgrey" stroke="black" cx="82.12" cy="-93.79" rx="45.07" ry="18"/>
<text text-anchor="middle" x="82.12" y="-91.59" font-family="Times,serif" font-size="9.00">PlayerRepository</text>
</g>
<!-- SPRING_REPOSITORY&#45;&gt;com.example.sample.application.repository.player.PlayerRepository -->
<g id="edge24" class="edge">
<title>SPRING_REPOSITORY&#45;&gt;com.example.sample.application.repository.player.PlayerRepository</title>
<path fill="none" stroke="black" d="M140.9,-152.34C130.56,-142.04 117.5,-129.03 106.31,-117.89"/>
<polygon fill="black" stroke="black" points="108.48,-115.11 98.93,-110.53 103.54,-120.07 108.48,-115.11"/>
</g>
<!-- SPRING_SERVICE -->
<g id="node8" class="node">
<title>SPRING_SERVICE</title>
<polygon fill="#eedd82" stroke="black" points="293.63,-193.76 236.63,-193.76 236.63,-189.76 232.63,-189.76 232.63,-185.76 236.63,-185.76 236.63,-165.76 232.63,-165.76 232.63,-161.76 236.63,-161.76 236.63,-157.76 293.63,-157.76 293.63,-193.76"/>
<polyline fill="none" stroke="black" points="236.63,-189.76 240.63,-189.76 240.63,-185.76 236.63,-185.76 "/>
<polyline fill="none" stroke="black" points="236.63,-165.76 240.63,-165.76 240.63,-161.76 236.63,-161.76 "/>
<text text-anchor="middle" x="265.13" y="-172.06" font-family="Times,serif" font-size="14.00">Service</text>
</g>
<!-- SPRING_SERVICE&#45;&gt;com.example.sample.application.repository.enemy.EnemyRepository -->
<g id="edge21" class="edge">
<title>SPRING_SERVICE&#45;&gt;com.example.sample.application.repository.enemy.EnemyRepository</title>
<path fill="none" stroke="black" d="M264.08,-157.61C262.49,-130.33 259.48,-78.52 257.6,-46.13"/>
<polygon fill="black" stroke="black" points="261.08,-45.73 257.01,-35.95 254.09,-46.14 261.08,-45.73"/>
</g>
<!-- SPRING_SERVICE&#45;&gt;com.example.sample.application.repository.item.ItemRepository -->
<g id="edge15" class="edge">
<title>SPRING_SERVICE&#45;&gt;com.example.sample.application.repository.item.ItemRepository</title>
<path fill="none" stroke="black" d="M250.62,-157.48C230.69,-132.39 194.78,-87.17 172.33,-58.89"/>
<polygon fill="black" stroke="black" points="175.06,-56.7 166.1,-51.05 169.58,-61.05 175.06,-56.7"/>
</g>
<!-- SPRING_SERVICE&#45;&gt;com.example.sample.application.repository.interactive.InteractiveRepository -->
<g id="edge8" class="edge">
<title>SPRING_SERVICE&#45;&gt;com.example.sample.application.repository.interactive.InteractiveRepository</title>
<path fill="none" stroke="black" d="M244.54,-193.92C218.39,-217 173.19,-256.87 144.23,-282.42"/>
<polygon fill="black" stroke="black" points="141.7,-279.99 136.52,-289.23 146.33,-285.23 141.7,-279.99"/>
</g>
<!-- SPRING_SERVICE&#45;&gt;com.example.sample.application.repository.npc.NpcRepository -->
<g id="edge7" class="edge">
<title>SPRING_SERVICE&#45;&gt;com.example.sample.application.repository.npc.NpcRepository</title>
<path fill="none" stroke="black" d="M259.39,-193.94C251.63,-218.53 237.71,-262.62 228.62,-291.42"/>
<polygon fill="black" stroke="black" points="225.18,-290.68 225.51,-301.27 231.86,-292.78 225.18,-290.68"/>
</g>
<!-- SPRING_SERVICE&#45;&gt;com.example.sample.application.repository.worldmap.WorldMapRepository -->
<g id="edge5" class="edge">
<title>SPRING_SERVICE&#45;&gt;com.example.sample.application.repository.worldmap.WorldMapRepository</title>
<path fill="none" stroke="black" d="M236.29,-181.92C204.08,-188.8 151.19,-200.09 110.73,-208.73"/>
<polygon fill="black" stroke="black" points="109.78,-205.36 100.73,-210.87 111.24,-212.2 109.78,-205.36"/>
</g>
<!-- SPRING_SERVICE&#45;&gt;com.example.sample.application.repository.player.PlayerRepository -->
<g id="edge16" class="edge">
<title>SPRING_SERVICE&#45;&gt;com.example.sample.application.repository.player.PlayerRepository</title>
<path fill="none" stroke="black" d="M236.54,-162.95C205.66,-149.12 156.26,-127 121.67,-111.51"/>
<polygon fill="black" stroke="black" points="122.89,-108.22 112.34,-107.33 120.03,-114.61 122.89,-108.22"/>
</g>
<!-- com.example.sample.presentation.battle.BattleController -->
<g id="node9" class="node">
<title>com.example.sample.presentation.battle.BattleController</title>
<polygon fill="lightgrey" stroke="black" points="456.33,-181.6 352.33,-181.6 352.33,-145.6 456.33,-145.6 456.33,-181.6"/>
<text text-anchor="middle" x="404.33" y="-159.9" font-family="Times,serif" font-size="14.00">BattleController</text>
</g>
<!-- com.example.sample.presentation.battle.BattleController&#45;&gt;SPRING_SERVICE -->
<g id="edge12" class="edge">
<title>com.example.sample.presentation.battle.BattleController&#45;&gt;SPRING_SERVICE</title>
<path fill="none" stroke="black" d="M352.11,-168.16C336.21,-169.55 319.03,-171.05 304.17,-172.35"/>
<polygon fill="black" stroke="black" points="303.47,-168.9 293.81,-173.25 304.07,-175.87 303.47,-168.9"/>
<text text-anchor="middle" x="324.64" y="-174.06" font-family="Times,serif" font-size="14.00">2</text>
</g>
<!-- com.example.sample.presentation.worldmap.WorldMapController -->
<g id="node14" class="node">
<title>com.example.sample.presentation.worldmap.WorldMapController</title>
<polygon fill="lightgrey" stroke="black" points="509.76,-245.9 377.76,-245.9 377.76,-209.9 509.76,-209.9 509.76,-245.9"/>
<text text-anchor="middle" x="443.76" y="-224.2" font-family="Times,serif" font-size="14.00">WorldMapController</text>
</g>
<!-- com.example.sample.presentation.battle.BattleController&#45;&gt;com.example.sample.presentation.worldmap.WorldMapController -->
<g id="edge3" class="edge">
<title>com.example.sample.presentation.battle.BattleController&#45;&gt;com.example.sample.presentation.worldmap.WorldMapController</title>
<path fill="none" stroke="black" d="M408.7,-181.89C411.57,-187.86 415.35,-194.59 419.38,-201.04"/>
<polygon fill="black" stroke="black" points="416.56,-203.12 424.98,-209.56 422.41,-199.28 416.56,-203.12"/>
</g>
<!-- com.example.sample.presentation.title.TitleController -->
<g id="node10" class="node">
<title>com.example.sample.presentation.title.TitleController</title>
<polygon fill="lightgrey" stroke="black" points="527.61,-126.16 429.61,-126.16 429.61,-90.16 527.61,-90.16 527.61,-126.16"/>
<text text-anchor="middle" x="478.61" y="-104.46" font-family="Times,serif" font-size="14.00">TitleController</text>
</g>
<!-- com.example.sample.presentation.title.TitleController&#45;&gt;SPRING_SERVICE -->
<g id="edge13" class="edge">
<title>com.example.sample.presentation.title.TitleController&#45;&gt;SPRING_SERVICE</title>
<path fill="none" stroke="black" d="M429.37,-123.76C391.15,-135.86 338.92,-152.4 303.71,-163.55"/>
<polygon fill="black" stroke="black" points="302.28,-160.33 293.8,-166.68 304.39,-167 302.28,-160.33"/>
</g>
<!-- com.example.sample.presentation.title.TitleController&#45;&gt;com.example.sample.presentation.worldmap.WorldMapController -->
<g id="edge1" class="edge">
<title>com.example.sample.presentation.title.TitleController&#45;&gt;com.example.sample.presentation.worldmap.WorldMapController</title>
<path fill="none" stroke="black" d="M473.32,-126.35C467.64,-145.86 458.54,-177.11 451.94,-199.8"/>
<polygon fill="black" stroke="black" points="448.53,-198.96 449.1,-209.54 455.26,-200.92 448.53,-198.96"/>
</g>
<!-- com.example.sample.presentation.itemlist.ItemListController -->
<g id="node11" class="node">
<title>com.example.sample.presentation.itemlist.ItemListController</title>
<polygon fill="lightgrey" stroke="black" points="496.95,-297.36 377.95,-297.36 377.95,-261.36 496.95,-261.36 496.95,-297.36"/>
<text text-anchor="middle" x="437.45" y="-275.66" font-family="Times,serif" font-size="14.00">ItemListController</text>
</g>
<!-- com.example.sample.presentation.itemlist.ItemListController&#45;&gt;SPRING_SERVICE -->
<g id="edge17" class="edge">
<title>com.example.sample.presentation.itemlist.ItemListController&#45;&gt;SPRING_SERVICE</title>
<path fill="none" stroke="black" d="M407.44,-261.32C378.3,-243.8 333.99,-217.16 302.56,-198.26"/>
<polygon fill="black" stroke="black" points="304.04,-195.06 293.66,-192.91 300.43,-201.06 304.04,-195.06"/>
</g>
<!-- com.example.sample.presentation.itemlist.ItemListController&#45;&gt;com.example.sample.presentation.worldmap.WorldMapController -->
<g id="edge27" class="edge">
<title>com.example.sample.presentation.itemlist.ItemListController&#45;&gt;com.example.sample.presentation.worldmap.WorldMapController</title>
<path fill="none" stroke="black" d="M446.25,-261.29C446.54,-259.76 446.79,-258.19 447.02,-256.6"/>
<polygon fill="black" stroke="black" points="450.55,-256.47 448,-246.18 443.58,-255.81 450.55,-256.47"/>
</g>
<!-- com.example.sample.presentation.clear.GameClearController -->
<g id="node12" class="node">
<title>com.example.sample.presentation.clear.GameClearController</title>
<polygon fill="lightgrey" stroke="black" points="868.06,-318.45 734.06,-318.45 734.06,-282.45 868.06,-282.45 868.06,-318.45"/>
<text text-anchor="middle" x="801.06" y="-296.75" font-family="Times,serif" font-size="14.00">GameClearController</text>
</g>
<!-- com.example.sample.presentation.GamePanel -->
<g id="node13" class="node">
<title>com.example.sample.presentation.GamePanel</title>
<polygon fill="lightgrey" stroke="black" points="646.47,-217.85 566.47,-217.85 566.47,-181.85 646.47,-181.85 646.47,-217.85"/>
<text text-anchor="middle" x="606.47" y="-196.15" font-family="Times,serif" font-size="14.00">GamePanel</text>
</g>
<!-- com.example.sample.presentation.GamePanel&#45;&gt;com.example.sample.presentation.battle.BattleController -->
<g id="edge10" class="edge">
<title>com.example.sample.presentation.GamePanel&#45;&gt;com.example.sample.presentation.battle.BattleController</title>
<path fill="none" stroke="black" d="M566.05,-192.6C537.67,-187.51 499.16,-180.61 466.84,-174.81"/>
<polygon fill="black" stroke="black" points="467.05,-171.29 456.59,-172.97 465.81,-178.18 467.05,-171.29"/>
</g>
<!-- com.example.sample.presentation.GamePanel&#45;&gt;com.example.sample.presentation.title.TitleController -->
<g id="edge2" class="edge">
<title>com.example.sample.presentation.GamePanel&#45;&gt;com.example.sample.presentation.title.TitleController</title>
<path fill="none" stroke="black" d="M581.21,-181.74C561.42,-167.55 533.71,-147.68 512.08,-132.17"/>
<polygon fill="black" stroke="black" points="513.99,-129.22 503.82,-126.24 509.91,-134.91 513.99,-129.22"/>
</g>
<!-- com.example.sample.presentation.GamePanel&#45;&gt;com.example.sample.presentation.itemlist.ItemListController -->
<g id="edge6" class="edge">
<title>com.example.sample.presentation.GamePanel&#45;&gt;com.example.sample.presentation.itemlist.ItemListController</title>
<path fill="none" stroke="black" d="M568.12,-217.9C543.57,-229.44 511.52,-244.52 485.31,-256.85"/>
<polygon fill="black" stroke="black" points="483.5,-253.83 475.95,-261.26 486.48,-260.17 483.5,-253.83"/>
</g>
<!-- com.example.sample.presentation.GamePanel&#45;&gt;com.example.sample.presentation.clear.GameClearController -->
<g id="edge26" class="edge">
<title>com.example.sample.presentation.GamePanel&#45;&gt;com.example.sample.presentation.clear.GameClearController</title>
<path fill="none" stroke="black" d="M641.71,-218.07C674.08,-234.81 722.19,-259.67 757.07,-277.71"/>
<polygon fill="black" stroke="black" points="755.6,-280.88 766.09,-282.37 758.81,-274.66 755.6,-280.88"/>
</g>
<!-- com.example.sample.presentation.GamePanel&#45;&gt;com.example.sample.presentation.worldmap.WorldMapController -->
<g id="edge18" class="edge">
<title>com.example.sample.presentation.GamePanel&#45;&gt;com.example.sample.presentation.worldmap.WorldMapController</title>
<path fill="none" stroke="black" d="M566.25,-206.79C552.14,-209.22 535.8,-212.03 519.73,-214.8"/>
<polygon fill="black" stroke="black" points="519.05,-211.37 509.79,-216.52 520.24,-218.27 519.05,-211.37"/>
</g>
<!-- com.example.sample.presentation.KeyInputHandler -->
<g id="node15" class="node">
<title>com.example.sample.presentation.KeyInputHandler</title>
<polygon fill="lightgrey" stroke="black" points="854.77,-143.67 743.77,-143.67 743.77,-107.67 854.77,-107.67 854.77,-143.67"/>
<text text-anchor="middle" x="799.27" y="-121.97" font-family="Times,serif" font-size="14.00">KeyInputHandler</text>
</g>
<!-- com.example.sample.presentation.GamePanel&#45;&gt;com.example.sample.presentation.KeyInputHandler -->
<g id="edge9" class="edge">
<title>com.example.sample.presentation.GamePanel&#45;&gt;com.example.sample.presentation.KeyInputHandler</title>
<path fill="none" stroke="black" d="M646.89,-184.3C674.68,-173.61 711.99,-159.25 742.73,-147.43"/>
<polygon fill="black" stroke="black" points="744.38,-150.54 752.46,-143.68 741.87,-144.01 744.38,-150.54"/>
</g>
<!-- com.example.sample.presentation.worldmap.WorldMapController&#45;&gt;SPRING_SERVICE -->
<g id="edge4" class="edge">
<title>com.example.sample.presentation.worldmap.WorldMapController&#45;&gt;SPRING_SERVICE</title>
<path fill="none" stroke="black" d="M382.03,-209.88C356.03,-202.29 326.57,-193.69 303.73,-187.03"/>
<polygon fill="black" stroke="black" points="304.64,-183.64 294.06,-184.2 302.68,-190.36 304.64,-183.64"/>
<text text-anchor="middle" x="335.88" y="-202.25" font-family="Times,serif" font-size="14.00">11</text>
</g>
<!-- com.example.sample.presentation.worldmap.WorldMapController&#45;&gt;com.example.sample.presentation.battle.BattleController -->
<g id="edge14" class="edge">
<title>com.example.sample.presentation.worldmap.WorldMapController&#45;&gt;com.example.sample.presentation.battle.BattleController</title>
<path fill="none" stroke="black" d="M439.39,-209.61C436.52,-203.64 432.74,-196.91 428.71,-190.46"/>
<polygon fill="black" stroke="black" points="431.53,-188.38 423.11,-181.94 425.68,-192.22 431.53,-188.38"/>
</g>
<!-- com.example.sample.presentation.worldmap.WorldMapController&#45;&gt;com.example.sample.presentation.itemlist.ItemListController -->
<g id="edge23" class="edge">
<title>com.example.sample.presentation.worldmap.WorldMapController&#45;&gt;com.example.sample.presentation.itemlist.ItemListController</title>
<path fill="none" stroke="black" d="M434.96,-245.98C434.67,-247.51 434.41,-249.08 434.19,-250.66"/>
<polygon fill="black" stroke="black" points="430.66,-250.8 433.21,-261.08 437.63,-251.45 430.66,-250.8"/>
</g>
</g>
</svg>
