<?xml version="1.0" encoding="UTF-8" standalone="no"?>
<!DOCTYPE svg PUBLIC "-//W3C//DTD SVG 1.1//EN"
 "http://www.w3.org/Graphics/SVG/1.1/DTD/svg11.dtd">
<!-- Generated by graphviz version 3.0.0 (20220226.1711)
 -->
<!-- Title: パッケージ関連図 Pages: 1 -->
<svg width="264pt" height="285pt"
 viewBox="0.00 0.00 263.65 285.00" xmlns="http://www.w3.org/2000/svg" xmlns:xlink="http://www.w3.org/1999/xlink">
<g id="graph0" class="graph" transform="scale(1 1) rotate(0) translate(4 281)">
<title>パッケージ関連図</title>
<polygon fill="white" stroke="transparent" points="-4,4 -4,-281 259.65,-281 259.65,4 -4,4"/>
<text text-anchor="middle" x="127.82" y="-7.8" font-family="Times,serif" font-size="14.00">パッケージ関連図</text>
<!-- summary -->
<g id="node1" class="node">
<title>summary</title>
<polygon fill="none" stroke="black" points="110,-277 0,-277 0,-239 116,-239 116,-271 110,-277"/>
<polyline fill="none" stroke="black" points="110,-277 110,-271 "/>
<polyline fill="none" stroke="black" points="116,-271 110,-271 "/>
<text text-anchor="start" x="8" y="-261.8" font-family="Times,serif" font-size="14.00">パッケージ数: 7</text>
<text text-anchor="start" x="8" y="-246.8" font-family="Times,serif" font-size="14.00">関連数: 13</text>
</g>
<!-- com.example.sample.domain.model.character -->
<g id="node2" class="node">
<title>com.example.sample.domain.model.character</title>
<polygon fill="#eedd82" stroke="black" points="200,-276 134,-276 134,-240 200,-240 200,-276"/>
<text text-anchor="middle" x="167" y="-254.3" font-family="Times,serif" font-size="14.00">character</text>
</g>
<!-- com.example.sample.domain.model.battle -->
<g id="node3" class="node">
<title>com.example.sample.domain.model.battle</title>
<polygon fill="#eedd82" stroke="black" points="172,-59 118,-59 118,-23 172,-23 172,-59"/>
<text text-anchor="middle" x="145" y="-37.3" font-family="Times,serif" font-size="14.00">battle</text>
</g>
<!-- com.example.sample.domain.model.character&#45;&gt;com.example.sample.domain.model.battle -->
<g id="edge1" class="edge">
<title>com.example.sample.domain.model.character&#45;&gt;com.example.sample.domain.model.battle</title>
<path fill="none" stroke="black" d="M200.03,-240.22C214.06,-231.23 228.99,-218.73 237,-203 258.77,-160.21 263.22,-136.45 239,-95 226.68,-73.91 202.54,-60.56 181.8,-52.53"/>
<polygon fill="black" stroke="black" points="182.86,-49.19 172.27,-49.11 180.5,-55.78 182.86,-49.19"/>
</g>
<!-- com.example.sample.domain.model.item -->
<g id="node5" class="node">
<title>com.example.sample.domain.model.item</title>
<polygon fill="#eedd82" stroke="black" points="121,-203 67,-203 67,-167 121,-167 121,-203"/>
<text text-anchor="middle" x="94" y="-181.3" font-family="Times,serif" font-size="14.00">item</text>
</g>
<!-- com.example.sample.domain.model.character&#45;&gt;com.example.sample.domain.model.item -->
<g id="edge5" class="edge">
<title>com.example.sample.domain.model.character&#45;&gt;com.example.sample.domain.model.item</title>
<path fill="none" stroke="black" d="M149.33,-239.81C140.18,-230.92 128.86,-219.91 118.85,-210.17"/>
<polygon fill="black" stroke="black" points="121.12,-207.49 111.51,-203.03 116.24,-212.51 121.12,-207.49"/>
</g>
<!-- com.example.sample.domain.model.worldmap -->
<g id="node6" class="node">
<title>com.example.sample.domain.model.worldmap</title>
<polygon fill="#eedd82" stroke="black" points="230,-131 158,-131 158,-95 230,-95 230,-131"/>
<text text-anchor="middle" x="194" y="-109.3" font-family="Times,serif" font-size="14.00">worldmap</text>
</g>
<!-- com.example.sample.domain.model.character&#45;&gt;com.example.sample.domain.model.worldmap -->
<g id="edge9" class="edge">
<title>com.example.sample.domain.model.character&#45;&gt;com.example.sample.domain.model.worldmap</title>
<path fill="none" stroke="black" d="M192.1,-239.77C203.52,-230.38 215.84,-217.68 222,-203 230.7,-182.27 221.73,-157.85 211.7,-139.84"/>
<polygon fill="black" stroke="black" points="214.58,-137.85 206.45,-131.06 208.58,-141.44 214.58,-137.85"/>
</g>
<!-- com.example.sample.domain.model.event -->
<g id="node4" class="node">
<title>com.example.sample.domain.model.event</title>
<polygon fill="#eedd82" stroke="black" points="102,-131 48,-131 48,-95 102,-95 102,-131"/>
<text text-anchor="middle" x="75" y="-109.3" font-family="Times,serif" font-size="14.00">event</text>
</g>
<!-- com.example.sample.domain.model.event&#45;&gt;com.example.sample.domain.model.character -->
<g id="edge2" class="edge">
<title>com.example.sample.domain.model.event&#45;&gt;com.example.sample.domain.model.character</title>
<path fill="none" stroke="black" d="M65.07,-131.04C55.47,-149.98 44.23,-180.81 58,-203 61.99,-209.44 95.75,-225.62 124.65,-238.6"/>
<polygon fill="black" stroke="black" points="123.26,-241.82 133.82,-242.69 126.11,-235.42 123.26,-241.82"/>
</g>
<!-- com.example.sample.domain.model.event&#45;&gt;com.example.sample.domain.model.battle -->
<g id="edge6" class="edge">
<title>com.example.sample.domain.model.event&#45;&gt;com.example.sample.domain.model.battle</title>
<path fill="none" stroke="black" d="M92.3,-94.7C100.86,-86.14 111.34,-75.66 120.7,-66.3"/>
<polygon fill="black" stroke="black" points="123.3,-68.65 127.9,-59.1 118.35,-63.7 123.3,-68.65"/>
</g>
<!-- com.example.sample.domain.model.gamemode -->
<g id="node8" class="node">
<title>com.example.sample.domain.model.gamemode</title>
<polygon fill="#eedd82" stroke="black" points="99.5,-59 22.5,-59 22.5,-23 99.5,-23 99.5,-59"/>
<text text-anchor="middle" x="61" y="-37.3" font-family="Times,serif" font-size="14.00">gamemode</text>
</g>
<!-- com.example.sample.domain.model.event&#45;&gt;com.example.sample.domain.model.gamemode -->
<g id="edge7" class="edge">
<title>com.example.sample.domain.model.event&#45;&gt;com.example.sample.domain.model.gamemode</title>
<path fill="none" stroke="black" d="M71.54,-94.7C70,-86.98 68.14,-77.71 66.42,-69.11"/>
<polygon fill="black" stroke="black" points="69.81,-68.22 64.42,-59.1 62.95,-69.6 69.81,-68.22"/>
</g>
<!-- com.example.sample.domain.model.item&#45;&gt;com.example.sample.domain.model.battle -->
<g id="edge10" class="edge">
<title>com.example.sample.domain.model.item&#45;&gt;com.example.sample.domain.model.battle</title>
<path fill="none" stroke="red" stroke-width="2" d="M103.54,-157.44C112.62,-132.16 126.21,-94.31 135.33,-68.91"/>
<polygon fill="red" stroke="red" stroke-width="2" points="100.24,-156.28 100.15,-166.87 106.83,-158.64 100.24,-156.28"/>
<polygon fill="red" stroke="red" stroke-width="2" points="138.74,-69.78 138.83,-59.19 132.15,-67.42 138.74,-69.78"/>
</g>
<!-- com.example.sample.domain.model.item&#45;&gt;com.example.sample.domain.model.event -->
<g id="edge11" class="edge">
<title>com.example.sample.domain.model.item&#45;&gt;com.example.sample.domain.model.event</title>
<path fill="none" stroke="red" stroke-width="2" d="M86.66,-156.95C85.22,-151.65 83.71,-146.1 82.28,-140.81"/>
<polygon fill="red" stroke="red" stroke-width="2" points="83.31,-157.96 89.3,-166.7 90.06,-156.13 83.31,-157.96"/>
<polygon fill="red" stroke="red" stroke-width="2" points="85.64,-139.84 79.64,-131.1 78.88,-141.67 85.64,-139.84"/>
</g>
<!-- com.example.sample.domain.model.item&#45;&gt;com.example.sample.domain.model.worldmap -->
<g id="edge3" class="edge">
<title>com.example.sample.domain.model.item&#45;&gt;com.example.sample.domain.model.worldmap</title>
<path fill="none" stroke="black" d="M118.46,-166.88C131.3,-157.89 147.2,-146.76 161.09,-137.03"/>
<polygon fill="black" stroke="black" points="163.26,-139.79 169.44,-131.19 159.24,-134.06 163.26,-139.79"/>
</g>
<!-- com.example.sample.domain.model.interactive -->
<g id="node7" class="node">
<title>com.example.sample.domain.model.interactive</title>
<polygon fill="#eedd82" stroke="black" points="213,-203 139,-203 139,-167 213,-167 213,-203"/>
<text text-anchor="middle" x="176" y="-181.3" font-family="Times,serif" font-size="14.00">interactive</text>
</g>
<!-- com.example.sample.domain.model.interactive&#45;&gt;com.example.sample.domain.model.event -->
<g id="edge8" class="edge">
<title>com.example.sample.domain.model.interactive&#45;&gt;com.example.sample.domain.model.event</title>
<path fill="none" stroke="black" d="M151.29,-166.88C138.33,-157.89 122.27,-146.76 108.23,-137.03"/>
<polygon fill="black" stroke="black" points="110.02,-134.01 99.8,-131.19 106.03,-139.76 110.02,-134.01"/>
</g>
<!-- com.example.sample.domain.model.interactive&#45;&gt;com.example.sample.domain.model.worldmap -->
<g id="edge4" class="edge">
<title>com.example.sample.domain.model.interactive&#45;&gt;com.example.sample.domain.model.worldmap</title>
<path fill="none" stroke="black" d="M180.45,-166.7C182.45,-158.9 184.87,-149.51 187.1,-140.83"/>
<polygon fill="black" stroke="black" points="190.5,-141.66 189.6,-131.1 183.72,-139.92 190.5,-141.66"/>
</g>
</g>
</svg>
