<?xml version="1.0" encoding="UTF-8" standalone="no"?>
<!DOCTYPE svg PUBLIC "-//W3C//DTD SVG 1.1//EN"
 "http://www.w3.org/Graphics/SVG/1.1/DTD/svg11.dtd">
<!-- Generated by graphviz version 3.0.0 (20220226.1711)
 -->
<!-- Title: パッケージ関連図 Pages: 1 -->
<svg width="568pt" height="467pt"
 viewBox="0.00 0.00 567.77 467.00" xmlns="http://www.w3.org/2000/svg" xmlns:xlink="http://www.w3.org/1999/xlink">
<g id="graph0" class="graph" transform="scale(1 1) rotate(0) translate(4 463)">
<title>パッケージ関連図</title>
<polygon fill="white" stroke="transparent" points="-4,4 -4,-463 563.77,-463 563.77,4 -4,4"/>
<text text-anchor="middle" x="279.89" y="-7.8" font-family="Times,serif" font-size="14.00">パッケージ関連図</text>
<g id="clust1" class="cluster">
<title>cluster_com.example.sample.domain.model.battle.technique</title>
<polygon fill="lemonchiffon" stroke="#eedd82" stroke-width="2" points="225.5,-376 225.5,-451 371.5,-451 371.5,-376 225.5,-376"/>
<text text-anchor="middle" x="298.5" y="-435.8" font-family="Times,serif" font-size="14.00">battle.technique</text>
</g>
<!-- summary -->
<g id="node1" class="node">
<title>summary</title>
<polygon fill="none" stroke="black" points="117,-421 0,-421 0,-383 123,-383 123,-415 117,-421"/>
<polyline fill="none" stroke="black" points="117,-421 117,-415 "/>
<polyline fill="none" stroke="black" points="123,-415 117,-415 "/>
<text text-anchor="start" x="8" y="-405.8" font-family="Times,serif" font-size="14.00">パッケージ数: 12</text>
<text text-anchor="start" x="8" y="-390.8" font-family="Times,serif" font-size="14.00">関連数: 28</text>
</g>
<!-- com.example.sample.domain.model.item -->
<g id="node2" class="node">
<title>com.example.sample.domain.model.item</title>
<polygon fill="#eedd82" stroke="black" points="293.5,-131 239.5,-131 239.5,-95 293.5,-95 293.5,-131"/>
<text text-anchor="middle" x="266.5" y="-109.3" font-family="Times,serif" font-size="14.00">item</text>
</g>
<!-- com.example.sample.domain.model.worldmap -->
<g id="node3" class="node">
<title>com.example.sample.domain.model.worldmap</title>
<polygon fill="#eedd82" stroke="black" points="247.5,-59 175.5,-59 175.5,-23 247.5,-23 247.5,-59"/>
<text text-anchor="middle" x="211.5" y="-37.3" font-family="Times,serif" font-size="14.00">worldmap</text>
</g>
<!-- com.example.sample.domain.model.item&#45;&gt;com.example.sample.domain.model.worldmap -->
<g id="edge1" class="edge">
<title>com.example.sample.domain.model.item&#45;&gt;com.example.sample.domain.model.worldmap</title>
<path fill="none" stroke="black" d="M252.9,-94.7C246.38,-86.39 238.43,-76.28 231.25,-67.14"/>
<polygon fill="black" stroke="black" points="233.87,-64.81 224.94,-59.1 228.37,-69.13 233.87,-64.81"/>
</g>
<!-- com.example.sample.domain.model.battle -->
<g id="node10" class="node">
<title>com.example.sample.domain.model.battle</title>
<polygon fill="#eedd82" stroke="black" points="438.5,-59 384.5,-59 384.5,-23 438.5,-23 438.5,-59"/>
<text text-anchor="middle" x="411.5" y="-37.3" font-family="Times,serif" font-size="14.00">battle</text>
</g>
<!-- com.example.sample.domain.model.item&#45;&gt;com.example.sample.domain.model.battle -->
<g id="edge18" class="edge">
<title>com.example.sample.domain.model.item&#45;&gt;com.example.sample.domain.model.battle</title>
<path fill="none" stroke="red" stroke-width="2" d="M303.04,-94.36C325.16,-83.68 353.25,-70.12 375.3,-59.47"/>
<polygon fill="red" stroke="red" stroke-width="2" points="301.26,-91.33 293.77,-98.83 304.3,-97.64 301.26,-91.33"/>
<polygon fill="red" stroke="red" stroke-width="2" points="376.87,-62.61 384.35,-55.11 373.82,-56.3 376.87,-62.61"/>
</g>
<!-- com.example.sample.domain.model.character.enemy -->
<g id="node4" class="node">
<title>com.example.sample.domain.model.character.enemy</title>
<polygon fill="#eedd82" stroke="black" points="383.5,-203 277.5,-203 277.5,-167 383.5,-167 383.5,-203"/>
<text text-anchor="middle" x="330.5" y="-181.3" font-family="Times,serif" font-size="14.00">character.enemy</text>
</g>
<!-- com.example.sample.domain.model.character.enemy&#45;&gt;com.example.sample.domain.model.item -->
<g id="edge2" class="edge">
<title>com.example.sample.domain.model.character.enemy&#45;&gt;com.example.sample.domain.model.item</title>
<path fill="none" stroke="black" d="M314.68,-166.7C306.93,-158.22 297.46,-147.86 288.98,-138.58"/>
<polygon fill="black" stroke="black" points="291.47,-136.12 282.14,-131.1 286.3,-140.85 291.47,-136.12"/>
</g>
<!-- com.example.sample.domain.model.character.enemy&#45;&gt;com.example.sample.domain.model.worldmap -->
<g id="edge15" class="edge">
<title>com.example.sample.domain.model.character.enemy&#45;&gt;com.example.sample.domain.model.worldmap</title>
<path fill="none" stroke="black" d="M328.82,-166.87C326.16,-147.57 319.38,-116.13 302.5,-95 290.67,-80.19 273.5,-68.69 257.26,-60.24"/>
<polygon fill="black" stroke="black" points="258.36,-56.88 247.85,-55.61 255.28,-63.17 258.36,-56.88"/>
</g>
<!-- com.example.sample.domain.model.character.enemy&#45;&gt;com.example.sample.domain.model.battle -->
<g id="edge14" class="edge">
<title>com.example.sample.domain.model.character.enemy&#45;&gt;com.example.sample.domain.model.battle</title>
<path fill="none" stroke="black" d="M340.27,-166.87C354.32,-142.24 380.33,-96.64 396.73,-67.88"/>
<polygon fill="black" stroke="black" points="399.78,-69.61 401.69,-59.19 393.7,-66.14 399.78,-69.61"/>
</g>
<!-- com.example.sample.domain.model.interactive -->
<g id="node5" class="node">
<title>com.example.sample.domain.model.interactive</title>
<polygon fill="#eedd82" stroke="black" points="215.5,-420 141.5,-420 141.5,-384 215.5,-384 215.5,-420"/>
<text text-anchor="middle" x="178.5" y="-398.3" font-family="Times,serif" font-size="14.00">interactive</text>
</g>
<!-- com.example.sample.domain.model.interactive&#45;&gt;com.example.sample.domain.model.worldmap -->
<g id="edge10" class="edge">
<title>com.example.sample.domain.model.interactive&#45;&gt;com.example.sample.domain.model.worldmap</title>
<path fill="none" stroke="black" d="M152.01,-383.95C118.61,-360.13 65.5,-313.53 65.5,-258 65.5,-258 65.5,-258 65.5,-184 65.5,-143.55 58.66,-126.12 84.5,-95 104.75,-70.61 138.13,-57.26 165.59,-50.06"/>
<polygon fill="black" stroke="black" points="166.51,-53.44 175.4,-47.68 164.86,-46.64 166.51,-53.44"/>
</g>
<!-- com.example.sample.domain.model.event -->
<g id="node6" class="node">
<title>com.example.sample.domain.model.event</title>
<polygon fill="#eedd82" stroke="black" points="318.5,-347 264.5,-347 264.5,-311 318.5,-311 318.5,-347"/>
<text text-anchor="middle" x="291.5" y="-325.3" font-family="Times,serif" font-size="14.00">event</text>
</g>
<!-- com.example.sample.domain.model.interactive&#45;&gt;com.example.sample.domain.model.event -->
<g id="edge3" class="edge">
<title>com.example.sample.domain.model.interactive&#45;&gt;com.example.sample.domain.model.event</title>
<path fill="none" stroke="black" d="M205.57,-383.99C220.55,-374.58 239.37,-362.76 255.57,-352.57"/>
<polygon fill="black" stroke="black" points="257.66,-355.4 264.26,-347.11 253.93,-349.47 257.66,-355.4"/>
</g>
<!-- com.example.sample.domain.model.event&#45;&gt;com.example.sample.domain.model.item -->
<g id="edge17" class="edge">
<title>com.example.sample.domain.model.event&#45;&gt;com.example.sample.domain.model.item</title>
<path fill="none" stroke="red" stroke-width="2" d="M256.5,-305.68C246.53,-297.37 236.91,-287 231.5,-275 211.27,-230.14 234.03,-172.88 251.14,-140.13"/>
<polygon fill="red" stroke="red" stroke-width="2" points="254.45,-308.52 264.5,-311.89 258.75,-302.99 254.45,-308.52"/>
<polygon fill="red" stroke="red" stroke-width="2" points="254.3,-141.64 256,-131.18 248.15,-138.3 254.3,-141.64"/>
</g>
<!-- com.example.sample.domain.model.gamemode -->
<g id="node8" class="node">
<title>com.example.sample.domain.model.gamemode</title>
<polygon fill="#eedd82" stroke="black" points="438,-275 361,-275 361,-239 438,-239 438,-275"/>
<text text-anchor="middle" x="399.5" y="-253.3" font-family="Times,serif" font-size="14.00">gamemode</text>
</g>
<!-- com.example.sample.domain.model.event&#45;&gt;com.example.sample.domain.model.gamemode -->
<g id="edge5" class="edge">
<title>com.example.sample.domain.model.event&#45;&gt;com.example.sample.domain.model.gamemode</title>
<path fill="none" stroke="black" d="M317.92,-310.88C331.91,-301.81 349.28,-290.55 364.39,-280.76"/>
<polygon fill="black" stroke="black" points="366.49,-283.57 372.98,-275.19 362.68,-277.69 366.49,-283.57"/>
</g>
<!-- com.example.sample.domain.model.character.player -->
<g id="node9" class="node">
<title>com.example.sample.domain.model.character.player</title>
<polygon fill="#eedd82" stroke="black" points="343,-275 240,-275 240,-239 343,-239 343,-275"/>
<text text-anchor="middle" x="291.5" y="-253.3" font-family="Times,serif" font-size="14.00">character.player</text>
</g>
<!-- com.example.sample.domain.model.event&#45;&gt;com.example.sample.domain.model.character.player -->
<g id="edge12" class="edge">
<title>com.example.sample.domain.model.event&#45;&gt;com.example.sample.domain.model.character.player</title>
<path fill="none" stroke="black" d="M291.5,-310.7C291.5,-302.98 291.5,-293.71 291.5,-285.11"/>
<polygon fill="black" stroke="black" points="295,-285.1 291.5,-275.1 288,-285.1 295,-285.1"/>
</g>
<!-- com.example.sample.domain.model.event&#45;&gt;com.example.sample.domain.model.battle -->
<g id="edge11" class="edge">
<title>com.example.sample.domain.model.event&#45;&gt;com.example.sample.domain.model.battle</title>
<path fill="none" stroke="black" d="M318.91,-325.15C376.02,-317.52 506.25,-290.79 552.5,-203 584.11,-142.99 498.95,-86.7 447.48,-59.34"/>
<polygon fill="black" stroke="black" points="449.09,-56.23 438.6,-54.73 445.86,-62.45 449.09,-56.23"/>
</g>
<!-- com.example.sample.domain.model.character.npc -->
<g id="node7" class="node">
<title>com.example.sample.domain.model.character.npc</title>
<polygon fill="#eedd82" stroke="black" points="183,-131 94,-131 94,-95 183,-95 183,-131"/>
<text text-anchor="middle" x="138.5" y="-109.3" font-family="Times,serif" font-size="14.00">character.npc</text>
</g>
<!-- com.example.sample.domain.model.character.npc&#45;&gt;com.example.sample.domain.model.worldmap -->
<g id="edge4" class="edge">
<title>com.example.sample.domain.model.character.npc&#45;&gt;com.example.sample.domain.model.worldmap</title>
<path fill="none" stroke="black" d="M156.54,-94.7C165.56,-86.05 176.62,-75.45 186.44,-66.03"/>
<polygon fill="black" stroke="black" points="188.87,-68.55 193.66,-59.1 184.02,-63.5 188.87,-68.55"/>
</g>
<!-- com.example.sample.domain.model.character.player&#45;&gt;com.example.sample.domain.model.item -->
<g id="edge7" class="edge">
<title>com.example.sample.domain.model.character.player&#45;&gt;com.example.sample.domain.model.item</title>
<path fill="none" stroke="black" d="M282.06,-238.91C277,-228.79 271.25,-215.54 268.5,-203 264.06,-182.75 263.72,-159.28 264.41,-141.53"/>
<polygon fill="black" stroke="black" points="267.92,-141.46 264.94,-131.29 260.93,-141.1 267.92,-141.46"/>
</g>
<!-- com.example.sample.domain.model.character.player&#45;&gt;com.example.sample.domain.model.worldmap -->
<g id="edge13" class="edge">
<title>com.example.sample.domain.model.character.player&#45;&gt;com.example.sample.domain.model.worldmap</title>
<path fill="none" stroke="black" d="M280.11,-238.73C273.65,-228.56 265.65,-215.31 259.5,-203 244.09,-172.13 240.58,-163.99 230.5,-131 224.28,-110.63 219.34,-87.04 216.06,-69.27"/>
<polygon fill="black" stroke="black" points="219.48,-68.52 214.28,-59.29 212.59,-69.75 219.48,-68.52"/>
</g>
<!-- com.example.sample.domain.model.character.player&#45;&gt;com.example.sample.domain.model.character.enemy -->
<g id="edge9" class="edge">
<title>com.example.sample.domain.model.character.player&#45;&gt;com.example.sample.domain.model.character.enemy</title>
<path fill="none" stroke="black" d="M301.14,-238.7C305.63,-230.64 311.06,-220.89 316.02,-211.98"/>
<polygon fill="black" stroke="black" points="319.16,-213.54 320.97,-203.1 313.05,-210.14 319.16,-213.54"/>
</g>
<!-- com.example.sample.domain.model.character.player&#45;&gt;com.example.sample.domain.model.battle -->
<g id="edge6" class="edge">
<title>com.example.sample.domain.model.character.player&#45;&gt;com.example.sample.domain.model.battle</title>
<path fill="none" stroke="black" d="M343.17,-240.31C361.61,-232.13 380.72,-220.13 392.5,-203 419.99,-163.03 419.08,-103.91 415.55,-69.54"/>
<polygon fill="black" stroke="black" points="418.99,-68.82 414.34,-59.3 412.03,-69.64 418.99,-68.82"/>
</g>
<!-- com.example.sample.domain.model.battle.technique -->
<g id="node11" class="node">
<title>com.example.sample.domain.model.battle.technique</title>
<polygon fill="#eedd82" stroke="black" points="543,-203 440,-203 440,-167 543,-167 543,-203"/>
<text text-anchor="middle" x="491.5" y="-181.3" font-family="Times,serif" font-size="14.00">battle.technique</text>
</g>
<!-- com.example.sample.domain.model.character.player&#45;&gt;com.example.sample.domain.model.battle.technique -->
<g id="edge8" class="edge">
<title>com.example.sample.domain.model.character.player&#45;&gt;com.example.sample.domain.model.battle.technique</title>
<path fill="none" stroke="black" d="M340.17,-238.97C368.11,-229.19 403.4,-216.84 432.86,-206.52"/>
<polygon fill="black" stroke="black" points="434.33,-209.72 442.61,-203.11 432.02,-203.11 434.33,-209.72"/>
</g>
<!-- com.example.sample.domain.model.battle.technique&#45;&gt;com.example.sample.domain.model.battle -->
<g id="edge16" class="edge">
<title>com.example.sample.domain.model.battle.technique&#45;&gt;com.example.sample.domain.model.battle</title>
<path fill="none" stroke="red" stroke-width="2" d="M476.75,-157.81C462.32,-132.21 440.49,-93.46 426.12,-67.94"/>
<polygon fill="red" stroke="red" stroke-width="2" points="473.89,-159.88 481.85,-166.87 479.99,-156.44 473.89,-159.88"/>
<polygon fill="red" stroke="red" stroke-width="2" points="429.14,-66.18 421.18,-59.19 423.04,-69.62 429.14,-66.18"/>
</g>
<!-- com.example.sample.domain.model.battle.technique.magic -->
<g id="node12" class="node">
<title>com.example.sample.domain.model.battle.technique.magic</title>
<polygon fill="#eedd82" stroke="black" points="363.5,-420 309.5,-420 309.5,-384 363.5,-384 363.5,-420"/>
<text text-anchor="middle" x="336.5" y="-398.3" font-family="Times,serif" font-size="14.00">magic</text>
</g>
<!-- com.example.sample.domain.model.battle.technique.physics -->
<g id="node13" class="node">
<title>com.example.sample.domain.model.battle.technique.physics</title>
<polygon fill="#eedd82" stroke="black" points="291,-420 234,-420 234,-384 291,-384 291,-420"/>
<text text-anchor="middle" x="262.5" y="-398.3" font-family="Times,serif" font-size="14.00">physics</text>
</g>
</g>
</svg>
