<?xml version="1.0" encoding="UTF-8" standalone="no"?>
<!DOCTYPE svg PUBLIC "-//W3C//DTD SVG 1.1//EN"
 "http://www.w3.org/Graphics/SVG/1.1/DTD/svg11.dtd">
<!-- Generated by graphviz version 3.0.0 (20220226.1711)
 -->
<!-- Title: パッケージ関連図 Pages: 1 -->
<svg width="377pt" height="363pt"
 viewBox="0.00 0.00 376.76 363.00" xmlns="http://www.w3.org/2000/svg" xmlns:xlink="http://www.w3.org/1999/xlink">
<g id="graph0" class="graph" transform="scale(1 1) rotate(0) translate(4 359)">
<title>パッケージ関連図</title>
<polygon fill="white" stroke="transparent" points="-4,4 -4,-359 372.76,-359 372.76,4 -4,4"/>
<text text-anchor="middle" x="184.38" y="-7.8" font-family="Times,serif" font-size="14.00">パッケージ関連図</text>
<g id="clust1" class="cluster">
<title>cluster_com.example.sample.domain.model.character</title>
<polygon fill="lemonchiffon" stroke="#eedd82" stroke-width="2" points="127.19,-87 127.19,-237 269.19,-237 269.19,-87 127.19,-87"/>
<text text-anchor="middle" x="198.19" y="-221.8" font-family="Times,serif" font-size="14.00">character</text>
</g>
<g id="clust2" class="cluster">
<title>cluster_com.example.sample.domain.model.battle</title>
<polygon fill="lemonchiffon" stroke="#eedd82" stroke-width="2" points="33.19,-87 33.19,-162 119.19,-162 119.19,-87 33.19,-87"/>
<text text-anchor="middle" x="76.19" y="-146.8" font-family="Times,serif" font-size="14.00">battle</text>
</g>
<!-- summary -->
<g id="node1" class="node">
<title>summary</title>
<polygon fill="none" stroke="black" points="217.69,-355 100.69,-355 100.69,-317 223.69,-317 223.69,-349 217.69,-355"/>
<polyline fill="none" stroke="black" points="217.69,-355 217.69,-349 "/>
<polyline fill="none" stroke="black" points="223.69,-349 217.69,-349 "/>
<text text-anchor="start" x="108.69" y="-339.8" font-family="Times,serif" font-size="14.00">パッケージ数: 10</text>
<text text-anchor="start" x="108.69" y="-324.8" font-family="Times,serif" font-size="14.00">関連数: 21</text>
</g>
<!-- com.example.sample.domain.model.character.player -->
<g id="node2" class="node">
<title>com.example.sample.domain.model.character.player</title>
<polygon fill="#eedd82" stroke="black" points="189.19,-206 135.19,-206 135.19,-170 189.19,-170 189.19,-206"/>
<text text-anchor="middle" x="162.19" y="-184.3" font-family="Times,serif" font-size="14.00">player</text>
</g>
<!-- com.example.sample.domain.model.item -->
<g id="node3" class="node">
<title>com.example.sample.domain.model.item</title>
<polygon fill="#eedd82" stroke="black" points="331.19,-131 277.19,-131 277.19,-95 331.19,-95 331.19,-131"/>
<text text-anchor="middle" x="304.19" y="-109.3" font-family="Times,serif" font-size="14.00">item</text>
</g>
<!-- com.example.sample.domain.model.character.player&#45;&gt;com.example.sample.domain.model.item -->
<g id="edge1" class="edge">
<title>com.example.sample.domain.model.character.player&#45;&gt;com.example.sample.domain.model.item</title>
<path fill="none" stroke="black" d="M189.34,-173.03C192.28,-171.86 195.26,-170.82 198.19,-170 230.47,-160.94 244.64,-179.57 273.19,-162 281.63,-156.81 288.2,-148.36 293.08,-139.99"/>
<polygon fill="black" stroke="black" points="296.2,-141.58 297.72,-131.09 289.99,-138.34 296.2,-141.58"/>
</g>
<!-- com.example.sample.domain.model.worldmap -->
<g id="node4" class="node">
<title>com.example.sample.domain.model.worldmap</title>
<polygon fill="#eedd82" stroke="black" points="340.19,-59 268.19,-59 268.19,-23 340.19,-23 340.19,-59"/>
<text text-anchor="middle" x="304.19" y="-37.3" font-family="Times,serif" font-size="14.00">worldmap</text>
</g>
<!-- com.example.sample.domain.model.character.player&#45;&gt;com.example.sample.domain.model.worldmap -->
<g id="edge9" class="edge">
<title>com.example.sample.domain.model.character.player&#45;&gt;com.example.sample.domain.model.worldmap</title>
<path fill="none" stroke="black" d="M189.47,-173.44C192.38,-172.2 195.33,-171.02 198.19,-170 212,-165.07 218.73,-171.14 230.19,-162 259.4,-138.7 247.97,-118.42 268.19,-87 272.43,-80.41 277.45,-73.63 282.38,-67.41"/>
<polygon fill="black" stroke="black" points="285.35,-69.29 288.95,-59.32 279.92,-64.88 285.35,-69.29"/>
</g>
<!-- com.example.sample.domain.model.battle.technique -->
<g id="node5" class="node">
<title>com.example.sample.domain.model.battle.technique</title>
<polygon fill="#eedd82" stroke="black" points="110.69,-131 41.69,-131 41.69,-95 110.69,-95 110.69,-131"/>
<text text-anchor="middle" x="76.19" y="-109.3" font-family="Times,serif" font-size="14.00">technique</text>
</g>
<!-- com.example.sample.domain.model.character.player&#45;&gt;com.example.sample.domain.model.battle.technique -->
<g id="edge3" class="edge">
<title>com.example.sample.domain.model.character.player&#45;&gt;com.example.sample.domain.model.battle.technique</title>
<path fill="none" stroke="black" d="M134.78,-170.55C130.79,-167.84 126.81,-164.94 123.19,-162 114.64,-155.04 106,-146.68 98.5,-138.9"/>
<polygon fill="black" stroke="black" points="100.83,-136.27 91.42,-131.39 95.73,-141.07 100.83,-136.27"/>
</g>
<!-- com.example.sample.domain.model.character.enemy -->
<g id="node6" class="node">
<title>com.example.sample.domain.model.character.enemy</title>
<polygon fill="#eedd82" stroke="black" points="221.19,-131 167.19,-131 167.19,-95 221.19,-95 221.19,-131"/>
<text text-anchor="middle" x="194.19" y="-109.3" font-family="Times,serif" font-size="14.00">enemy</text>
</g>
<!-- com.example.sample.domain.model.character.player&#45;&gt;com.example.sample.domain.model.character.enemy -->
<g id="edge4" class="edge">
<title>com.example.sample.domain.model.character.player&#45;&gt;com.example.sample.domain.model.character.enemy</title>
<path fill="none" stroke="black" d="M169.77,-169.7C173.6,-160.97 178.32,-150.2 182.59,-140.46"/>
<polygon fill="black" stroke="black" points="185.85,-141.74 186.66,-131.18 179.44,-138.93 185.85,-141.74"/>
</g>
<!-- com.example.sample.domain.model.battle -->
<g id="node9" class="node">
<title>com.example.sample.domain.model.battle</title>
<polygon fill="#eedd82" stroke="black" points="166.19,-59 112.19,-59 112.19,-23 166.19,-23 166.19,-59"/>
<text text-anchor="middle" x="139.19" y="-37.3" font-family="Times,serif" font-size="14.00">battle</text>
</g>
<!-- com.example.sample.domain.model.character.player&#45;&gt;com.example.sample.domain.model.battle -->
<g id="edge14" class="edge">
<title>com.example.sample.domain.model.character.player&#45;&gt;com.example.sample.domain.model.battle</title>
<path fill="none" stroke="black" d="M159.43,-169.79C159.02,-167.18 158.59,-164.52 158.19,-162 153.11,-130.06 147.3,-93.34 143.46,-69.02"/>
<polygon fill="black" stroke="black" points="146.91,-68.42 141.89,-59.09 139.99,-69.51 146.91,-68.42"/>
</g>
<!-- com.example.sample.domain.model.item&#45;&gt;com.example.sample.domain.model.worldmap -->
<g id="edge2" class="edge">
<title>com.example.sample.domain.model.item&#45;&gt;com.example.sample.domain.model.worldmap</title>
<path fill="none" stroke="black" d="M304.19,-94.7C304.19,-86.98 304.19,-77.71 304.19,-69.11"/>
<polygon fill="black" stroke="black" points="307.69,-69.1 304.19,-59.1 300.69,-69.1 307.69,-69.1"/>
</g>
<!-- com.example.sample.domain.model.item&#45;&gt;com.example.sample.domain.model.battle -->
<g id="edge17" class="edge">
<title>com.example.sample.domain.model.item&#45;&gt;com.example.sample.domain.model.battle</title>
<path fill="none" stroke="red" stroke-width="2" d="M276.56,-88.97C275.44,-88.28 274.32,-87.62 273.19,-87 242.24,-70.04 203.76,-57.93 175.99,-50.58"/>
<polygon fill="red" stroke="red" stroke-width="2" points="274.71,-91.94 284.92,-94.75 278.69,-86.18 274.71,-91.94"/>
<polygon fill="red" stroke="red" stroke-width="2" points="176.84,-47.18 166.28,-48.08 175.1,-53.96 176.84,-47.18"/>
</g>
<!-- com.example.sample.domain.model.battle.technique&#45;&gt;com.example.sample.domain.model.battle -->
<g id="edge16" class="edge">
<title>com.example.sample.domain.model.battle.technique&#45;&gt;com.example.sample.domain.model.battle</title>
<path fill="none" stroke="red" stroke-width="2" d="M98.51,-87.2C104.53,-80.52 111.03,-73.29 117.03,-66.62"/>
<polygon fill="red" stroke="red" stroke-width="2" points="95.85,-84.92 91.76,-94.7 101.05,-89.61 95.85,-84.92"/>
<polygon fill="red" stroke="red" stroke-width="2" points="119.71,-68.88 123.8,-59.1 114.51,-64.2 119.71,-68.88"/>
</g>
<!-- com.example.sample.domain.model.character.enemy&#45;&gt;com.example.sample.domain.model.item -->
<g id="edge5" class="edge">
<title>com.example.sample.domain.model.character.enemy&#45;&gt;com.example.sample.domain.model.item</title>
<path fill="none" stroke="black" d="M221.26,-113C236.5,-113 251.73,-113 266.97,-113"/>
<polygon fill="black" stroke="black" points="266.98,-116.5 276.98,-113 266.98,-109.5 266.98,-116.5"/>
</g>
<!-- com.example.sample.domain.model.character.enemy&#45;&gt;com.example.sample.domain.model.worldmap -->
<g id="edge15" class="edge">
<title>com.example.sample.domain.model.character.enemy&#45;&gt;com.example.sample.domain.model.worldmap</title>
<path fill="none" stroke="black" d="M221.1,-94.88C235.35,-85.81 253.04,-74.55 268.43,-64.76"/>
<polygon fill="black" stroke="black" points="270.62,-67.51 277.18,-59.19 266.86,-61.61 270.62,-67.51"/>
</g>
<!-- com.example.sample.domain.model.character.enemy&#45;&gt;com.example.sample.domain.model.battle -->
<g id="edge11" class="edge">
<title>com.example.sample.domain.model.character.enemy&#45;&gt;com.example.sample.domain.model.battle</title>
<path fill="none" stroke="black" d="M180.6,-94.7C174.07,-86.39 166.12,-76.28 158.94,-67.14"/>
<polygon fill="black" stroke="black" points="161.56,-64.81 152.63,-59.1 156.06,-69.13 161.56,-64.81"/>
</g>
<!-- com.example.sample.domain.model.interactive -->
<g id="node7" class="node">
<title>com.example.sample.domain.model.interactive</title>
<polygon fill="#eedd82" stroke="black" points="316.19,-354 242.19,-354 242.19,-318 316.19,-318 316.19,-354"/>
<text text-anchor="middle" x="279.19" y="-332.3" font-family="Times,serif" font-size="14.00">interactive</text>
</g>
<!-- com.example.sample.domain.model.interactive&#45;&gt;com.example.sample.domain.model.worldmap -->
<g id="edge6" class="edge">
<title>com.example.sample.domain.model.interactive&#45;&gt;com.example.sample.domain.model.worldmap</title>
<path fill="none" stroke="black" d="M290.43,-317.75C309.31,-287.63 346.65,-222.86 360.19,-162 367.43,-129.46 374.6,-117.06 360.19,-87 356.28,-78.84 350.08,-71.68 343.21,-65.62"/>
<polygon fill="black" stroke="black" points="344.93,-62.52 334.93,-59.02 340.57,-67.99 344.93,-62.52"/>
</g>
<!-- com.example.sample.domain.model.event -->
<g id="node8" class="node">
<title>com.example.sample.domain.model.event</title>
<polygon fill="#eedd82" stroke="black" points="189.19,-281 135.19,-281 135.19,-245 189.19,-245 189.19,-281"/>
<text text-anchor="middle" x="162.19" y="-259.3" font-family="Times,serif" font-size="14.00">event</text>
</g>
<!-- com.example.sample.domain.model.interactive&#45;&gt;com.example.sample.domain.model.event -->
<g id="edge10" class="edge">
<title>com.example.sample.domain.model.interactive&#45;&gt;com.example.sample.domain.model.event</title>
<path fill="none" stroke="black" d="M251.17,-317.99C235.28,-308.35 215.23,-296.18 198.18,-285.84"/>
<polygon fill="black" stroke="black" points="199.95,-282.82 189.58,-280.62 196.32,-288.8 199.95,-282.82"/>
</g>
<!-- com.example.sample.domain.model.event&#45;&gt;com.example.sample.domain.model.character.player -->
<g id="edge8" class="edge">
<title>com.example.sample.domain.model.event&#45;&gt;com.example.sample.domain.model.character.player</title>
<path fill="none" stroke="black" d="M162.19,-244.7C162.19,-236.25 162.19,-225.87 162.19,-216.37"/>
<polygon fill="black" stroke="black" points="165.69,-216.18 162.19,-206.18 158.69,-216.18 165.69,-216.18"/>
</g>
<!-- com.example.sample.domain.model.event&#45;&gt;com.example.sample.domain.model.item -->
<g id="edge18" class="edge">
<title>com.example.sample.domain.model.event&#45;&gt;com.example.sample.domain.model.item</title>
<path fill="none" stroke="red" stroke-width="2" d="M199.29,-257.84C227.34,-253.95 262.74,-247.19 273.19,-237 298.8,-212.03 304.39,-169.22 305.06,-141.27"/>
<polygon fill="red" stroke="red" stroke-width="2" points="198.81,-254.37 189.35,-259.15 199.72,-261.32 198.81,-254.37"/>
<polygon fill="red" stroke="red" stroke-width="2" points="308.56,-141.02 305.1,-131 301.56,-140.99 308.56,-141.02"/>
</g>
<!-- com.example.sample.domain.model.event&#45;&gt;com.example.sample.domain.model.battle -->
<g id="edge7" class="edge">
<title>com.example.sample.domain.model.event&#45;&gt;com.example.sample.domain.model.battle</title>
<path fill="none" stroke="black" d="M135.09,-260.71C100.71,-258.45 44.31,-252.44 31.19,-237 -11.99,-186.2 -7.97,-142.35 29.19,-87 45.36,-62.91 76.96,-51.71 102.16,-46.5"/>
<polygon fill="black" stroke="black" points="102.94,-49.92 112.15,-44.67 101.68,-43.03 102.94,-49.92"/>
</g>
<!-- com.example.sample.domain.model.gamemode -->
<g id="node11" class="node">
<title>com.example.sample.domain.model.gamemode</title>
<polygon fill="#eedd82" stroke="black" points="116.69,-206 39.69,-206 39.69,-170 116.69,-170 116.69,-206"/>
<text text-anchor="middle" x="78.19" y="-184.3" font-family="Times,serif" font-size="14.00">gamemode</text>
</g>
<!-- com.example.sample.domain.model.event&#45;&gt;com.example.sample.domain.model.gamemode -->
<g id="edge13" class="edge">
<title>com.example.sample.domain.model.event&#45;&gt;com.example.sample.domain.model.gamemode</title>
<path fill="none" stroke="black" d="M135.14,-245.9C131.01,-243.1 126.9,-240.09 123.19,-237 114.89,-230.1 106.59,-221.75 99.41,-213.96"/>
<polygon fill="black" stroke="black" points="101.94,-211.54 92.66,-206.44 96.74,-216.22 101.94,-211.54"/>
</g>
<!-- com.example.sample.domain.model.character.npc -->
<g id="node10" class="node">
<title>com.example.sample.domain.model.character.npc</title>
<polygon fill="#eedd82" stroke="black" points="261.19,-206 207.19,-206 207.19,-170 261.19,-170 261.19,-206"/>
<text text-anchor="middle" x="234.19" y="-184.3" font-family="Times,serif" font-size="14.00">npc</text>
</g>
<!-- com.example.sample.domain.model.character.npc&#45;&gt;com.example.sample.domain.model.worldmap -->
<g id="edge12" class="edge">
<title>com.example.sample.domain.model.character.npc&#45;&gt;com.example.sample.domain.model.worldmap</title>
<path fill="none" stroke="black" d="M261.44,-184.37C289.52,-181.04 330.54,-174.19 340.19,-162 360.88,-135.86 351.22,-118.45 340.19,-87 337.69,-79.86 333.52,-73.01 328.89,-66.91"/>
<polygon fill="black" stroke="black" points="331.48,-64.55 322.41,-59.08 326.09,-69.01 331.48,-64.55"/>
</g>
</g>
</svg>
